<?xml version="1.0" encoding="UTF-8" standalone="no"?>
<svg
   xmlns:dc="http://purl.org/dc/elements/1.1/"
   xmlns:cc="http://creativecommons.org/ns#"
   xmlns:rdf="http://www.w3.org/1999/02/22-rdf-syntax-ns#"
   xmlns:svg="http://www.w3.org/2000/svg"
   xmlns="http://www.w3.org/2000/svg"
   xmlns:sodipodi="http://sodipodi.sourceforge.net/DTD/sodipodi-0.dtd"
   xmlns:inkscape="http://www.inkscape.org/namespaces/inkscape"
   width="260"
   height="300"
   version="1.1"
   id="svg1912"
   sodipodi:docname="Barisonzi_crest.svg"
   inkscape:version="1.0.2 (e86c870879, 2021-01-15, custom)"
   inkscape:export-filename="C:\Users\Marcello-User\Downloads\Barisonzi_crest.png"
   inkscape:export-xdpi="236.30769"
   inkscape:export-ydpi="236.30769">
  <metadata
     id="metadata1918">
    <rdf:RDF>
      <cc:Work
         rdf:about="">
        <dc:format>image/svg+xml</dc:format>
        <dc:type
           rdf:resource="http://purl.org/dc/dcmitype/StillImage" />
        <dc:title />
      </cc:Work>
    </rdf:RDF>
  </metadata>
  <defs
     id="defs1916" />
  <sodipodi:namedview
     pagecolor="#ffffff"
     bordercolor="#666666"
     borderopacity="1"
     objecttolerance="10"
     gridtolerance="10"
     guidetolerance="10"
     inkscape:pageopacity="0"
     inkscape:pageshadow="2"
     inkscape:window-width="1440"
     inkscape:window-height="838"
     id="namedview1914"
     showgrid="false"
     inkscape:zoom="1.65"
     inkscape:cx="159.49666"
     inkscape:cy="155.4282"
     inkscape:window-x="-8"
     inkscape:window-y="-8"
     inkscape:window-maximized="1"
     inkscape:current-layer="svg1912"
     inkscape:document-rotation="0"
     inkscape:snap-nodes="false" />
  <path
     fill="none"
     stroke="#000000"
     stroke-width="2.68109"
     d="M 29.898954,4.796601 H 229.29437 V 235.11718 c 0,69.09618 -87.73399,30.04182 -99.69771,60.08363 -11.96373,-30.04181 -99.697706,9.01255 -99.697706,-60.08363 v 0 z"
     id="path872"
     style="fill:#ffffff" />
  <path
     id="path1078"
     style="color:#000000;font-style:normal;font-variant:normal;font-weight:normal;font-stretch:normal;font-size:medium;line-height:normal;font-family:sans-serif;font-variant-ligatures:normal;font-variant-position:normal;font-variant-caps:normal;font-variant-numeric:normal;font-variant-alternates:normal;font-variant-east-asian:normal;font-feature-settings:normal;font-variation-settings:normal;text-indent:0;text-align:start;text-decoration:none;text-decoration-line:none;text-decoration-style:solid;text-decoration-color:#000000;letter-spacing:normal;word-spacing:normal;text-transform:none;writing-mode:lr-tb;direction:ltr;text-orientation:mixed;dominant-baseline:auto;baseline-shift:baseline;text-anchor:start;white-space:normal;shape-padding:0;shape-margin:0;inline-size:0;clip-rule:nonzero;display:inline;overflow:visible;visibility:visible;isolation:auto;mix-blend-mode:normal;color-interpolation:sRGB;color-interpolation-filters:linearRGB;solid-color:#000000;solid-opacity:1;vector-effect:none;fill:#008080;fill-opacity:1;fill-rule:nonzero;stroke:none;stroke-width:0.298477;stroke-linecap:butt;stroke-linejoin:miter;stroke-miterlimit:4;stroke-dasharray:none;stroke-dashoffset:0;stroke-opacity:1;color-rendering:auto;image-rendering:auto;shape-rendering:auto;text-rendering:auto;enable-background:accumulate;stop-color:#000000"
     d="M 59.982422 238.58594 C 59.764942 238.57694 59.549971 238.58352 59.337891 238.60352 L 59.337891 238.61133 C 55.239421 238.63313 52.089633 243.87279 51.345703 245.22461 C 51.262603 245.37551 51.23982 245.42363 51.21875 245.46484 L 51.21875 245.45898 C 44.96348 257.39091 39.171875 245.54102 39.171875 245.54102 L 38.193359 251.16992 L 39.130859 245.45898 C 36.597199 240.62603 34.096869 238.82377 31.855469 238.62695 C 31.211991 238.57045 30.593407 238.65915 29.998047 238.83398 C 30.234199 243.652 30.928886 247.90378 32.025391 251.64648 C 33.639911 251.96218 35.425507 253.40864 37.251953 256.89258 L 37.255859 256.88867 C 37.331859 257.03821 38.199789 258.72832 39.667969 260.43359 C 39.807519 260.59567 39.950109 260.75626 40.099609 260.91602 C 41.295679 262.19413 42.805022 263.35254 44.507812 263.66406 C 44.720652 263.70296 44.935567 263.72913 45.154297 263.74023 C 46.794717 263.82313 48.594741 263.08132 50.457031 260.91602 C 50.581181 260.77167 50.705388 260.62007 50.830078 260.46289 C 51.578178 259.51976 52.335603 258.34246 53.095703 256.89258 L 52.162109 251.20312 L 53.134766 256.8125 C 53.134766 256.8125 55.739041 251.49956 59.337891 251.58008 C 61.211661 251.39577 63.385584 252.61466 65.621094 256.87891 L 65.621094 256.875 C 65.642194 256.9162 65.662994 256.96243 65.746094 257.11328 C 66.492704 258.46998 69.663123 263.74647 73.783203 263.73047 C 73.916113 263.72996 74.050717 263.72294 74.185547 263.71094 C 76.426947 263.51412 78.927277 261.71186 81.460938 256.87891 L 80.529297 251.20117 L 81.501953 256.79688 C 81.501953 256.79688 87.293548 244.94697 93.548828 256.87891 L 93.550781 256.87695 C 93.572181 256.91875 93.593381 256.96354 93.675781 257.11328 C 94.44653 258.51374 97.798583 264.09177 102.11328 263.71289 C 104.35468 263.51607 106.85697 261.71186 109.39062 256.87891 L 108.45312 251.16992 L 109.43164 256.79688 C 109.43164 256.79688 115.22325 244.94694 121.47852 256.87891 L 121.47852 256.875 C 121.49962 256.9162 121.52042 256.96242 121.60352 257.11328 C 122.34745 258.4651 125.49723 263.7067 129.5957 263.72852 L 129.5957 263.73438 C 131.29235 263.89207 133.16864 263.18164 135.11719 260.91602 C 135.24134 260.77167 135.36554 260.62008 135.49023 260.46289 C 136.23833 259.51977 136.99576 258.34442 137.75586 256.89453 L 136.82227 251.20312 L 137.79688 256.8125 C 137.79688 256.8125 143.58848 244.96261 149.84375 256.89453 L 149.84375 256.89062 C 149.91975 257.04016 150.78772 258.72833 152.25586 260.43359 C 152.3954 260.59567 152.53994 260.75625 152.68945 260.91602 C 153.88547 262.19413 155.39295 263.35254 157.0957 263.66406 C 157.30854 263.70296 157.52543 263.72913 157.74414 263.74023 C 160.15005 263.86178 162.89657 262.21078 165.68359 256.89453 L 164.74805 251.1875 L 165.72461 256.81445 C 165.72461 256.81445 171.51621 244.96261 177.77148 256.89453 L 177.77344 256.89062 C 177.84944 257.04016 178.71736 258.72833 180.18555 260.43359 C 180.3251 260.59567 180.46964 260.75625 180.61914 260.91602 C 181.81521 262.19413 183.3226 263.35254 185.02539 263.66406 C 185.23823 263.70296 185.4551 263.72913 185.67383 263.74023 C 187.31425 263.82313 189.11232 263.08132 190.97461 260.91602 C 191.09876 260.77167 191.22297 260.62203 191.34766 260.46484 C 192.09576 259.52172 192.85318 258.34442 193.61328 256.89453 L 192.67969 251.20312 L 193.6543 256.81445 C 193.6543 256.81445 196.25663 251.49956 199.85547 251.58008 C 201.72924 251.39578 203.90316 252.61466 206.13867 256.87891 L 206.13867 256.875 C 206.15977 256.9162 206.18248 256.96242 206.26562 257.11328 C 207.01224 258.46997 210.18265 263.74646 214.30273 263.73047 C 214.43564 263.72995 214.56829 263.72489 214.70312 263.71289 C 216.94452 263.51607 219.44682 261.71186 221.98047 256.87891 L 221.04883 251.20312 L 222.01953 256.79883 C 222.01953 256.79883 224.12033 252.50808 227.15625 251.69336 C 228.26995 247.90722 228.97209 243.60024 229.20312 238.71094 C 228.79552 238.62897 228.39278 238.57986 228.00195 238.59961 C 227.78324 238.61061 227.56832 238.63873 227.35547 238.67773 C 225.65273 238.98925 224.14523 240.14767 222.94922 241.42578 C 222.7997 241.58554 222.65517 241.74612 222.51562 241.9082 C 221.04748 243.61346 220.17952 245.30164 220.10352 245.45117 L 220.10352 245.44727 C 213.84825 257.3792 208.05664 245.52734 208.05664 245.52734 L 207.08203 251.13867 L 208.01562 245.44727 C 207.25553 243.99738 206.4981 242.82007 205.75 241.87695 C 205.62531 241.71976 205.5011 241.57013 205.37695 241.42578 C 203.4284 239.16016 201.55212 238.44776 199.85547 238.60547 L 199.85547 238.61328 C 195.757 238.63508 192.60721 243.8767 191.86328 245.22852 C 191.78018 245.37942 191.75935 245.42559 191.73828 245.4668 L 191.73633 245.46289 C 185.48106 257.39483 179.69141 245.54297 179.69141 245.54297 L 178.71289 251.17188 L 179.65039 245.46289 C 177.11673 240.62994 174.61445 238.82573 172.37305 238.62891 C 168.05835 238.25003 164.7063 243.82806 163.93555 245.22852 C 163.85315 245.37828 163.83195 245.42302 163.81055 245.46484 L 163.80859 245.46289 C 157.55331 257.3948 151.76172 245.54297 151.76172 245.54297 L 150.78906 251.13867 L 151.7207 245.46289 C 149.18704 240.62994 146.68476 238.82574 144.44336 238.62891 C 144.30853 238.61711 144.17589 238.61183 144.04297 238.61133 C 139.9229 238.59533 136.75247 243.87183 136.00586 245.22852 C 135.92276 245.37942 135.90193 245.42559 135.88086 245.4668 L 135.87891 245.46289 C 133.6434 249.72714 131.46947 250.94602 129.5957 250.76172 C 125.99685 250.84222 123.39453 245.52734 123.39453 245.52734 L 122.41992 251.13867 L 123.35352 245.44727 C 122.59342 243.99738 121.83599 242.82007 121.08789 241.87695 C 120.9632 241.71976 120.84095 241.57013 120.7168 241.42578 C 118.85451 239.26048 117.05448 238.51869 115.41406 238.60156 C 115.19533 238.61256 114.97846 238.63873 114.76562 238.67773 C 113.06284 238.98925 111.55545 240.14767 110.35938 241.42578 C 110.20987 241.58555 110.06533 241.74612 109.92578 241.9082 C 108.45759 243.61346 107.58967 245.30164 107.51367 245.45117 L 107.51172 245.44727 C 101.25644 257.3792 95.466797 245.5293 95.466797 245.5293 L 94.488281 251.1543 L 95.423828 245.44727 C 92.636809 240.13102 89.890285 238.48001 87.484375 238.60156 C 87.265665 238.61266 87.048778 238.63873 86.835938 238.67773 C 85.133188 238.98925 83.627661 240.14767 82.431641 241.42578 C 82.282131 241.58555 82.135634 241.74612 81.996094 241.9082 C 80.527954 243.61346 79.661938 245.3036 79.585938 245.45312 L 79.583984 245.44922 C 73.328714 257.38115 67.537109 245.5293 67.537109 245.5293 L 66.5625 251.13867 L 67.496094 245.44922 C 66.735994 243.99933 65.980522 242.82203 65.232422 241.87891 C 65.107732 241.72172 64.983525 241.57013 64.859375 241.42578 C 63.154395 239.44337 61.504802 238.65127 59.982422 238.58984 L 59.982422 238.58594 z " />
  <path
     id="path189951"
     style="color:#000000;font-style:normal;font-variant:normal;font-weight:normal;font-stretch:normal;font-size:medium;line-height:normal;font-family:sans-serif;font-variant-ligatures:normal;font-variant-position:normal;font-variant-caps:normal;font-variant-numeric:normal;font-variant-alternates:normal;font-variant-east-asian:normal;font-feature-settings:normal;font-variation-settings:normal;text-indent:0;text-align:start;text-decoration:none;text-decoration-line:none;text-decoration-style:solid;text-decoration-color:#000000;letter-spacing:normal;word-spacing:normal;text-transform:none;writing-mode:lr-tb;direction:ltr;text-orientation:mixed;dominant-baseline:auto;baseline-shift:baseline;text-anchor:start;white-space:normal;shape-padding:0;shape-margin:0;inline-size:0;clip-rule:nonzero;display:inline;overflow:visible;visibility:visible;isolation:auto;mix-blend-mode:normal;color-interpolation:sRGB;color-interpolation-filters:linearRGB;solid-color:#000000;solid-opacity:1;vector-effect:none;fill:#008080;fill-opacity:1;fill-rule:nonzero;stroke:none;stroke-width:0.298477;stroke-linecap:butt;stroke-linejoin:miter;stroke-miterlimit:4;stroke-dasharray:none;stroke-dashoffset:0;stroke-opacity:1;color-rendering:auto;image-rendering:auto;shape-rendering:auto;text-rendering:auto;enable-background:accumulate;stop-color:#000000"
     d="M 59.982422 16.376953 C 59.764942 16.368153 59.549971 16.372828 59.337891 16.392578 L 59.337891 16.400391 C 55.239421 16.422211 52.089633 21.663802 51.345703 23.015625 C 51.262603 23.166526 51.23982 23.212692 51.21875 23.253906 L 51.21875 23.25 C 44.96348 35.181935 39.171875 23.330078 39.171875 23.330078 L 38.193359 28.958984 L 39.130859 23.25 C 36.597199 18.41705 34.096869 16.612837 31.855469 16.416016 C 31.175957 16.356347 30.523956 16.458093 29.898438 16.654297 L 29.898438 29.642578 C 31.987204 28.831601 34.575888 29.577046 37.251953 34.681641 L 37.255859 34.677734 C 37.331859 34.827267 38.199789 36.515437 39.667969 38.220703 C 39.807519 38.382782 39.950109 38.545315 40.099609 38.705078 C 41.295679 39.983189 42.805023 41.141606 44.507812 41.453125 C 44.720652 41.492065 44.935567 41.518247 45.154297 41.529297 C 46.794717 41.612167 48.594741 40.87038 50.457031 38.705078 C 50.581181 38.560725 50.705388 38.40914 50.830078 38.251953 C 51.578178 37.308831 52.335603 36.131526 53.095703 34.681641 L 52.162109 28.992188 L 53.134766 34.601562 C 53.134766 34.601562 55.739041 29.288619 59.337891 29.369141 C 61.211661 29.184834 63.385584 30.40372 65.621094 34.667969 L 65.621094 34.664062 C 65.642194 34.705272 65.662994 34.751445 65.746094 34.902344 C 66.492704 36.25904 69.663123 41.533573 73.783203 41.517578 C 73.916113 41.517062 74.050717 41.51181 74.185547 41.5 C 76.426947 41.303179 78.927277 39.500919 81.460938 34.667969 L 80.529297 28.990234 L 81.501953 34.585938 C 81.501953 34.585938 87.293548 22.736055 93.548828 34.667969 L 93.550781 34.666016 C 93.572181 34.707836 93.593381 34.752574 93.675781 34.902344 C 94.44653 36.302805 97.798584 41.878876 102.11328 41.5 C 104.35468 41.303179 106.85697 39.500919 109.39062 34.667969 L 108.45312 28.957031 L 109.43164 34.585938 C 109.43164 34.585938 115.22325 22.736035 121.47852 34.667969 L 121.47852 34.664062 C 121.49962 34.705272 121.52042 34.751445 121.60352 34.902344 C 122.34745 36.254168 125.49723 41.493811 129.5957 41.515625 L 129.5957 41.523438 C 131.29235 41.681145 133.16864 40.970693 135.11719 38.705078 C 135.24134 38.560725 135.36554 38.40914 135.49023 38.251953 C 136.23833 37.308831 136.99576 36.131526 137.75586 34.681641 L 136.82227 28.992188 L 137.79688 34.601562 C 137.79688 34.601562 143.58848 22.749714 149.84375 34.681641 L 149.84375 34.677734 C 149.91975 34.827267 150.78772 36.51739 152.25586 38.222656 C 152.3954 38.384735 152.53994 38.545315 152.68945 38.705078 C 153.88547 39.983189 155.39295 41.141606 157.0957 41.453125 C 157.30854 41.492065 157.52543 41.518247 157.74414 41.529297 C 160.15005 41.650842 162.89657 39.997888 165.68359 34.681641 L 164.74805 28.974609 L 165.72461 34.601562 C 165.72461 34.601562 171.51621 22.749714 177.77148 34.681641 L 177.77344 34.677734 C 177.84944 34.827267 178.71736 36.51739 180.18555 38.222656 C 180.3251 38.384735 180.46964 38.545315 180.61914 38.705078 C 181.81521 39.983189 183.3226 41.141606 185.02539 41.453125 C 185.23823 41.492065 185.4551 41.518247 185.67383 41.529297 C 187.31425 41.612167 189.11232 40.87038 190.97461 38.705078 C 191.09876 38.560725 191.22297 38.40914 191.34766 38.251953 C 192.09576 37.308831 192.85318 36.131526 193.61328 34.681641 L 192.67969 28.992188 L 193.6543 34.601562 C 193.6543 34.601562 196.25663 29.288619 199.85547 29.369141 C 201.72924 29.184834 203.90316 30.40372 206.13867 34.667969 L 206.13867 34.664062 C 206.15977 34.705272 206.18248 34.751445 206.26562 34.902344 C 207.01224 36.25904 210.18265 41.535526 214.30273 41.519531 C 214.43564 41.519015 214.56829 41.51181 214.70312 41.5 C 216.94452 41.303179 219.44682 39.500919 221.98047 34.667969 L 221.04883 28.990234 L 222.01953 34.585938 C 222.01953 34.585938 225.1513 28.191814 229.29492 29.541016 L 229.29492 16.519531 C 228.85568 16.422603 228.42193 16.367455 228.00195 16.388672 C 227.78324 16.399722 227.56832 16.425914 227.35547 16.464844 C 225.65273 16.776364 224.14523 17.934781 222.94922 19.212891 C 222.7997 19.372655 222.65517 19.533234 222.51562 19.695312 C 221.04748 21.400578 220.17952 23.088748 220.10352 23.238281 L 220.10352 23.234375 C 213.84825 35.166305 208.05664 23.314453 208.05664 23.314453 L 207.08203 28.925781 L 208.01562 23.234375 C 207.25553 21.78449 206.4981 20.607184 205.75 19.664062 C 205.62531 19.506875 205.5011 19.357245 205.37695 19.212891 C 203.4284 16.947277 201.55212 16.23487 199.85547 16.392578 L 199.85547 16.400391 C 195.757 16.422211 192.60721 21.6638 191.86328 23.015625 C 191.78018 23.166526 191.75935 23.212692 191.73828 23.253906 L 191.73633 23.25 C 185.48106 35.181935 179.69141 23.332031 179.69141 23.332031 L 178.71289 28.958984 L 179.65039 23.25 C 177.11673 18.417049 174.61445 16.612837 172.37305 16.416016 C 168.05835 16.03714 164.7063 21.615164 163.93555 23.015625 C 163.85315 23.165391 163.83195 23.210136 163.81055 23.251953 L 163.80859 23.25 C 157.55331 35.181914 151.76172 23.332031 151.76172 23.332031 L 150.78906 28.925781 L 151.7207 23.25 C 149.18704 18.417049 146.68476 16.612837 144.44336 16.416016 C 144.30853 16.404176 144.17589 16.398957 144.04297 16.398438 C 139.9229 16.382438 136.75247 21.658929 136.00586 23.015625 C 135.92276 23.166526 135.90193 23.212692 135.88086 23.253906 L 135.87891 23.25 C 133.6434 27.514248 131.46947 28.733135 129.5957 28.548828 C 125.99685 28.629348 123.39453 23.314453 123.39453 23.314453 L 122.41992 28.925781 L 123.35352 23.234375 C 122.59342 21.78449 121.83599 20.607185 121.08789 19.664062 C 120.9632 19.506877 120.84095 19.357245 120.7168 19.212891 C 118.85451 17.047589 117.05448 16.3058 115.41406 16.388672 C 115.19533 16.399722 114.97846 16.425914 114.76562 16.464844 C 113.06284 16.776363 111.55545 17.934781 110.35938 19.212891 C 110.20987 19.372655 110.06533 19.533232 109.92578 19.695312 C 108.45759 21.400578 107.58967 23.088748 107.51367 23.238281 L 107.51172 23.234375 C 101.25644 35.166305 95.466797 23.314453 95.466797 23.314453 L 94.488281 28.941406 L 95.423828 23.234375 C 92.636809 17.918128 89.890285 16.267127 87.484375 16.388672 C 87.265665 16.399722 87.048778 16.425914 86.835938 16.464844 C 85.133188 16.776363 83.627661 17.934781 82.431641 19.212891 C 82.282131 19.372655 82.135634 19.533232 81.996094 19.695312 C 80.527954 21.400578 79.661938 23.088748 79.585938 23.238281 L 79.583984 23.234375 C 73.328714 35.166305 67.537109 23.314453 67.537109 23.314453 L 66.5625 28.925781 L 67.496094 23.234375 C 66.735994 21.78449 65.980522 20.607184 65.232422 19.664062 C 65.107732 19.506875 64.983525 19.357245 64.859375 19.212891 C 63.154395 17.230479 61.504802 16.438383 59.982422 16.376953 z " />
  <g
     id="g1752"
     transform="matrix(0.47144011,0,0,0.47974382,484.63969,74.876632)">
    <g
       transform="matrix(0.45739207,0,0,0.45739207,-38.865745,60.499627)"
       id="Fruit"
       style="fill:#c8ab37">
      <g
         transform="rotate(-25.999994,196.49998,231.50018)"
         id="g1877"
         style="fill:#c8ab37">
        <path
           d="m 270.17955,263.82918 c 11.25748,2.02058 8.10376,10.58145 7.21634,14.43267 4.3298,10.96883 14.43266,28.56069 14.43266,31.17456 4.04115,7.21633 2.67874,27.93097 -4.41329,29.39557 -12.64369,2.25445 -20.65271,-11.35853 -21.56551,-14.09694 -4.47412,-12.55642 1.5876,-45.02993 1.44327,-51.95761 0,-1.73192 -1.73192,-8.94825 2.88653,-8.94825 z"
           id="path1873"
           style="fill:#c8ab37;stroke:none" />
        <path
           d="m 266.57849,273.24319 c 8.08229,7.21633 24.3841,37.63649 27.55929,45.71878"
           id="path1875"
           style="fill:#c8ab37;stroke:#333333;stroke-width:1px" />
      </g>
      <g
         transform="matrix(-0.898794,-0.438371,-0.438371,0.898794,632.00439,109.5691)"
         id="use1881"
         style="fill:#c8ab37">
        <path
           d="m 270.17955,263.82918 c 11.25748,2.02058 8.10376,10.58145 7.21634,14.43267 4.3298,10.96883 14.43266,28.56069 14.43266,31.17456 4.04115,7.21633 2.67874,27.93097 -4.41329,29.39557 -12.64369,2.25445 -20.65271,-11.35853 -21.56551,-14.09694 -4.47412,-12.55642 1.5876,-45.02993 1.44327,-51.95761 0,-1.73192 -1.73192,-8.94825 2.88653,-8.94825 z"
           id="path1628"
           style="fill:#c8ab37;stroke:none" />
        <path
           d="m 266.57849,273.24319 c 8.08229,7.21633 24.3841,37.63649 27.55929,45.71878"
           id="path1630"
           style="fill:#c8ab37;stroke:#333333;stroke-width:1px" />
      </g>
    </g>
    <g
       transform="matrix(-0.45739207,0,0,0.45739207,290.57968,60.499648)"
       id="Fruit-2"
       style="fill:#c8ab37;stroke:none">
      <g
         transform="rotate(-25.999994,196.49998,231.50018)"
         id="g1638"
         style="fill:#c8ab37">
        <path
           d="m 270.17955,263.82918 c 11.25748,2.02058 8.10376,10.58145 7.21634,14.43267 4.3298,10.96883 14.43266,28.56069 14.43266,31.17456 4.04115,7.21633 2.67874,27.93097 -4.41329,29.39557 -12.64369,2.25445 -20.65271,-11.35853 -21.56551,-14.09694 -4.47412,-12.55642 1.5876,-45.02993 1.44327,-51.95761 0,-1.73192 -1.73192,-8.94825 2.88653,-8.94825 z"
           id="path1634"
           style="fill:#c8ab37;stroke:none" />
        <path
           d="m 266.57849,273.24319 c 8.08229,7.21633 24.3841,37.63649 27.55929,45.71878"
           id="path1636"
           style="fill:#c8ab37;stroke:#333333;stroke-width:1px" />
      </g>
      <g
         transform="matrix(-0.898794,-0.438371,-0.438371,0.898794,632.00439,109.5691)"
         id="g1644"
         style="fill:#c8ab37">
        <path
           d="m 270.17955,263.82918 c 11.25748,2.02058 8.10376,10.58145 7.21634,14.43267 4.3298,10.96883 14.43266,28.56069 14.43266,31.17456 4.04115,7.21633 2.67874,27.93097 -4.41329,29.39557 -12.64369,2.25445 -20.65271,-11.35853 -21.56551,-14.09694 -4.47412,-12.55642 1.5876,-45.02993 1.44327,-51.95761 0,-1.73192 -1.73192,-8.94825 2.88653,-8.94825 z"
           id="path1640"
           style="fill:#c8ab37;stroke:none" />
        <path
           d="m 266.57849,273.24319 c 8.08229,7.21633 24.3841,37.63649 27.55929,45.71878"
           id="path1642"
           style="fill:#c8ab37;stroke:#333333;stroke-width:1px" />
      </g>
    </g>
    <g
       transform="matrix(0.43500594,-0.14134193,-0.14134193,-0.43500594,16.062672,243.06692)"
       id="Fruit-3"
       style="fill:#c8ab37;stroke:none">
      <g
         transform="rotate(-25.999994,196.49998,231.50018)"
         id="g1652"
         style="fill:#c8ab37">
        <path
           d="m 270.17955,263.82918 c 11.25748,2.02058 8.10376,10.58145 7.21634,14.43267 4.3298,10.96883 14.43266,28.56069 14.43266,31.17456 4.04115,7.21633 2.67874,27.93097 -4.41329,29.39557 -12.64369,2.25445 -20.65271,-11.35853 -21.56551,-14.09694 -4.47412,-12.55642 1.5876,-45.02993 1.44327,-51.95761 0,-1.73192 -1.73192,-8.94825 2.88653,-8.94825 z"
           id="path1648"
           style="fill:#c8ab37;stroke:none" />
        <path
           d="m 266.57849,273.24319 c 8.08229,7.21633 24.3841,37.63649 27.55929,45.71878"
           id="path1650"
           style="fill:#c8ab37;stroke:#333333;stroke-width:1px" />
      </g>
      <g
         transform="matrix(-0.898794,-0.438371,-0.438371,0.898794,632.00439,109.5691)"
         id="g1658"
         style="fill:#c8ab37">
        <path
           d="m 270.17955,263.82918 c 11.25748,2.02058 8.10376,10.58145 7.21634,14.43267 4.3298,10.96883 14.43266,28.56069 14.43266,31.17456 4.04115,7.21633 2.67874,27.93097 -4.41329,29.39557 -12.64369,2.25445 -20.65271,-11.35853 -21.56551,-14.09694 -4.47412,-12.55642 1.5876,-45.02993 1.44327,-51.95761 0,-1.73192 -1.73192,-8.94825 2.88653,-8.94825 z"
           id="path1654"
           style="fill:#c8ab37;stroke:none" />
        <path
           d="m 266.57849,273.24319 c 8.08229,7.21633 24.3841,37.63649 27.55929,45.71878"
           id="path1656"
           style="fill:#c8ab37;stroke:#333333;stroke-width:1px" />
      </g>
    </g>
    <g
       transform="matrix(-0.43500594,-0.14134193,0.14134193,-0.43500594,235.84717,243.06692)"
       id="Fruit-4"
       style="fill:#c8ab37;stroke:none">
      <g
         transform="rotate(-25.999994,196.49998,231.50018)"
         id="g1666"
         style="fill:#c8ab37">
        <path
           d="m 270.17955,263.82918 c 11.25748,2.02058 8.10376,10.58145 7.21634,14.43267 4.3298,10.96883 14.43266,28.56069 14.43266,31.17456 4.04115,7.21633 2.67874,27.93097 -4.41329,29.39557 -12.64369,2.25445 -20.65271,-11.35853 -21.56551,-14.09694 -4.47412,-12.55642 1.5876,-45.02993 1.44327,-51.95761 0,-1.73192 -1.73192,-8.94825 2.88653,-8.94825 z"
           id="path1662"
           style="fill:#c8ab37;stroke:none" />
        <path
           d="m 266.57849,273.24319 c 8.08229,7.21633 24.3841,37.63649 27.55929,45.71878"
           id="path1664"
           style="fill:#c8ab37;stroke:#333333;stroke-width:1px" />
      </g>
      <g
         transform="matrix(-0.898794,-0.438371,-0.438371,0.898794,632.00439,109.5691)"
         id="g1672"
         style="fill:#c8ab37">
        <path
           d="m 270.17955,263.82918 c 11.25748,2.02058 8.10376,10.58145 7.21634,14.43267 4.3298,10.96883 14.43266,28.56069 14.43266,31.17456 4.04115,7.21633 2.67874,27.93097 -4.41329,29.39557 -12.64369,2.25445 -20.65271,-11.35853 -21.56551,-14.09694 -4.47412,-12.55642 1.5876,-45.02993 1.44327,-51.95761 0,-1.73192 -1.73192,-8.94825 2.88653,-8.94825 z"
           id="path1668"
           style="fill:#c8ab37;stroke:none" />
        <path
           d="m 266.57849,273.24319 c 8.08229,7.21633 24.3841,37.63649 27.55929,45.71878"
           id="path1670"
           style="fill:#c8ab37;stroke:#333333;stroke-width:1px" />
      </g>
    </g>
    <path
       d="m 87.352329,165.96985 c 0,-1.21396 0.739081,-9.7528 1.346064,-12.18072 0.606976,-2.42792 2.787945,-5.90863 5.215862,-8.33655 2.427914,-2.42791 6.0698,-3.64187 8.497715,-3.03489 2.42792,0.60698 3.64187,3.03489 4.85583,6.06979 1.21396,3.03489 3.79548,6.9047 3.79548,11.15355 0,4.24886 -1.21396,9.10469 -1.21396,13.35355 0,4.24886 1.21396,7.89073 1.82095,11.5326 0.60697,3.64189 0.60697,7.28376 0,10.31867 -0.60699,3.03489 -1.82095,5.46281 -1.82095,7.89072 0,2.42792 1.21396,4.85584 1.21396,7.89074 0,3.0349 -1.21396,6.67677 -1.21396,10.31865 0,3.64188 1.21396,7.28375 1.82095,12.13959 0.60697,4.85584 0.60697,10.92563 0,15.78147 -0.60699,4.85583 -1.82095,8.49771 -4.85584,7.89074 -3.0349,-0.60699 -7.890741,-5.46282 -12.746577,-5.46282 -4.855836,0 -9.711672,4.85583 -15.174485,4.85583 -5.462819,0 -11.532615,-4.85583 -16.388453,-6.06979 -4.855837,-1.21396 -8.497714,1.21396 -12.139591,1.82094 -3.641877,0.60698 -7.283755,-0.60698 -9.104694,-0.60698 -1.820938,0 -1.820938,1.21396 -0.606979,2.42791 1.213959,1.21396 3.641878,2.42792 6.069796,3.03491 2.427918,0.60697 4.855836,0.60697 6.069795,1.21396 1.213959,0.60697 1.213959,1.82094 0.606979,3.03489 -0.606979,1.21396 -1.820938,2.42792 -1.820938,3.0349 0,0.60698 1.213959,0.60698 3.034897,-0.60698 1.820939,-1.21396 4.248857,-3.64187 6.069795,-4.85584 1.82094,-1.21396 3.034899,-1.21396 3.034899,-0.60697 0,0.60697 -1.213959,1.82094 -0.60698,2.42791 0.60698,0.60698 3.034898,0.60698 4.248859,1.21396 1.213959,0.60698 1.213959,1.82094 0,3.64188 -1.213961,1.82093 -3.641879,4.24885 -3.641879,5.46281 0,1.21397 2.427918,1.21397 4.855838,0 2.427919,-1.21396 4.855837,-3.64188 6.676778,-4.24886 1.820936,-0.60698 3.034895,0.60698 4.248854,0.60698 1.213959,0 2.427918,-1.21396 3.034901,-0.60698 0.606976,0.60698 0.606976,3.0349 -0.606983,5.46283 -1.213959,2.42791 -3.641877,4.85583 -4.855836,6.67676 -1.213959,1.82094 -1.213959,3.0349 0.606983,3.0349 1.820935,0 5.462812,-1.21396 7.890731,-0.60697 2.427918,0.60697 3.641877,3.0349 4.855836,4.24885 1.213959,1.21396 2.427918,1.21396 3.034901,0.60698 0.606976,-0.60698 0.606976,-1.82093 -0.606983,-3.64187 -1.213959,-1.82095 -3.641877,-4.24886 -4.248854,-7.28376 -0.606982,-3.03489 0.606977,-6.67678 1.820936,-9.1047 1.213959,-2.42791 2.427918,-3.64187 3.641877,-3.64187 1.213963,0 2.427921,1.21396 3.034912,3.0349 0.606967,1.82093 0.606967,4.24885 1.213958,5.46281 0.606966,1.21397 1.820937,1.21397 2.427917,0 0.60698,-1.21396 0.60698,-3.64188 1.82094,-4.24886 1.21395,-0.60698 3.64187,0.60698 5.46281,1.21396 1.82093,0.60698 3.03489,0.60698 3.03489,1.82094 0,1.21396 -1.21396,3.64188 -3.03489,5.46282 -1.82094,1.82094 -4.24886,3.0349 -5.46281,5.46281 -1.21396,2.42792 -1.21396,6.0698 -0.60698,7.89074 0.60698,1.82094 1.82093,1.82094 2.42791,0.60698 0.60698,-1.21396 0.60698,-3.64188 1.82094,-5.46281 1.21396,-1.82095 3.64187,-3.03491 5.46282,-3.03491 1.82094,0 3.0349,1.21396 3.64187,3.03491 0.60698,1.82093 0.60698,4.24885 1.82094,4.85583 1.21396,0.60698 3.64188,-0.60698 3.64188,-3.64187 0,-3.03491 -2.42792,-7.89074 -2.42792,-12.13959 0,-4.24887 2.42792,-7.89074 4.24886,-9.71168 1.82093,-1.82094 3.0349,-1.82094 4.85584,-1.21396 1.82093,0.60698 4.24885,1.82094 6.06979,3.64188 1.82093,1.82093 3.03489,4.24885 2.42791,6.0698 -0.60698,1.82093 -3.03489,3.03489 -4.85583,4.85583 -1.82094,1.82094 -3.0349,4.24885 -3.0349,7.28376 0,3.03489 1.21396,6.67677 1.82094,7.28375 0.60698,0.60697 0.60698,-1.82094 1.82094,-4.24886 1.21396,-2.42791 3.64187,-4.85584 5.46282,-6.0698 1.82093,-1.21396 3.0349,-1.21396 4.24885,-0.60698 1.21396,0.60698 2.42792,1.82094 2.42792,4.24887 0,2.42791 -1.21396,6.06979 0,6.67677 1.21396,0.60697 4.85583,-1.82094 5.46282,-5.46282 0.60697,-3.64188 -1.82095,-8.49771 -3.64188,-12.13959 -1.82094,-3.64188 -3.0349,-6.0698 -1.21396,-6.67678 1.82093,-0.60698 6.67677,0.60698 8.49772,1.82094 1.82093,1.21396 0.60697,2.42792 1.21395,3.03491 0.60698,0.60698 3.0349,0.60698 4.24886,-0.60699 1.21395,-1.21396 1.21395,-3.64188 1.82093,-4.85584 0.60698,-1.21395 1.82094,-1.21395 3.0349,0 1.21397,1.21396 2.42792,3.64188 1.21397,6.67679 -1.21397,3.03489 -4.85585,6.67676 -6.0698,9.71167 -1.21396,3.03489 0,5.46281 1.21395,6.06979 1.21396,0.60698 2.42792,-0.60698 3.64188,-2.42792 1.21397,-1.82093 2.42792,-4.24886 4.24886,-4.85583 1.82094,-0.60699 4.24885,0.60697 6.0698,0.60697 1.82093,0 3.0349,-1.21396 3.0349,-2.42792 0,-1.21395 -1.21397,-2.42791 -2.42793,-3.03489 -1.21396,-0.60698 -2.42792,-0.60698 -3.03489,-2.42792 -0.60698,-1.82093 -0.60698,-5.46282 -1.21396,-7.89074 -0.60698,-2.42791 -1.82094,-3.64187 -0.60698,-3.64187 1.21396,0 4.85583,1.21396 7.28376,1.82094 2.42791,0.60698 3.64187,0.60698 4.85583,1.82093 1.21396,1.21396 2.42791,3.64188 2.42791,5.46283 0,1.82093 -1.21395,3.03489 -1.21395,4.24885 0,1.21396 1.21395,2.42792 2.42791,1.82094 1.21396,-0.60698 2.42792,-3.0349 4.24887,-4.24886 1.82093,-1.21395 4.24885,-1.21395 5.46281,-1.82093 1.21396,-0.60699 1.21396,-1.82095 0,-2.42792 -1.21396,-0.60699 -3.64188,-0.60699 -5.46281,-1.82095 -1.82095,-1.21396 -3.03491,-3.64187 -2.42792,-4.24885 0.60697,-0.60698 3.0349,0.60698 4.85583,0 1.82094,-0.60698 3.0349,-3.03489 5.46281,-3.64187 2.42792,-0.60699 6.06981,0.60698 9.71168,0 3.64187,-0.60699 7.28376,-3.03491 8.49772,-4.85585 1.21395,-1.82093 0,-3.03489 -1.82094,-2.42791 -1.82095,0.60698 -4.24887,3.03489 -7.89074,3.03489 -3.64187,0 -8.49772,-2.42791 -13.35355,-1.82094 -4.85584,0.60698 -9.71167,4.24886 -14.5675,3.64189 -4.85585,-0.60699 -9.71168,-5.46282 -13.96053,-6.0698 -4.24887,-0.60698 -7.89074,3.03489 -11.53261,3.64187 -3.64189,0.60698 -7.28376,-1.82093 -9.71168,-4.85583 -2.42791,-3.03491 -3.64188,-6.67678 -4.24885,-10.92563 -0.60699,-4.24887 -0.60699,-9.1047 0,-13.35355 0.60697,-4.24886 1.82094,-7.89074 1.82094,-10.92563 0,-3.0349 -1.21397,-5.46283 -1.21397,-8.49772 0,-3.0349 1.21397,-6.67677 1.21397,-9.71166 0,-3.03491 -1.21397,-5.46283 -1.21397,-8.49772 0,-3.03491 1.21397,-6.67678 1.21397,-9.71168 0,-3.03489 -1.21397,-5.46282 -1.21397,-8.49771 0,-3.03489 1.21397,-6.67677 1.82094,-10.92562 0.60698,-4.24886 -0.76058,-9.33262 1.06036,-11.76054 1.82093,-2.42792 5.46281,-2.42792 9.10469,-1.21396 3.64188,1.21396 7.28375,3.64188 9.1047,6.06979 1.82092,2.42793 3.75494,13.03377 4.36193,14.24773 0,0 0.77854,0.17459 0.77854,0.17459 0,-1.82095 -1.12817,-14.18576 -2.94911,-16.61368 -1.82095,-2.42792 -4.35817,-6.28719 -6.63909,-7.48261 -4.33203,-2.27042 -1.36636,-7.83011 0.40119,-12.17728 0.51122,-1.2573 1.82094,-2.42793 3.0349,-3.03491 1.21395,-0.60698 17.33461,4.90689 19.15556,4.90689 0.20234,-1.61862 0.16223,-1.0553 0.36454,-2.67391 -1.21395,0 -19.40341,-5.64873 -18.56378,-6.71511 7.96654,-13.61961 18.88451,-25.092408 27.98624,-37.911811 l -2.9199,-1.697053 c -10.24899,13.484329 -20.95915,26.329674 -30.27152,40.449124 -3.03489,4.24885 -6.67678,9.10469 -9.10469,11.53261 -2.42792,2.42791 -3.64188,2.42791 -5.46281,2.42791 -1.82094,0 -4.24887,0 -5.46283,-1.21395 -1.21395,-1.21396 -1.21395,-3.64188 0,-5.46281 1.21396,-1.82095 2.03021,-3.84075 3.85115,-5.05471 1.82094,-1.21396 3.35722,-2.75025 4.57118,-4.57118 1.21396,-1.82095 2.75026,-3.28186 3.35725,-5.1028 0.60697,-1.82093 2.36592,-10.09853 2.36592,-11.31249 l -0.57968,-0.57969 c -1.77318,6.9285 -3.43493,12.81978 -11.1379,18.12315 -2.49974,1.72102 -4.98964,3.14413 -5.46281,2.42791 0,0 -3.13707,-62.494609 -4.23722,-62.494609 -2.68926,0 -0.57124,0 -3.2605,0 -1.10014,0 -4.23722,62.494609 -4.23722,62.494609 -0.5295,0.67564 -2.77954,-1.00992 -5.46281,-2.42791 -7.58212,-4.00682 -9.66366,-11.40606 -11.04349,-17.95388 l -0.57969,0.39087 c 0,1.21396 1.26737,9.67227 1.87435,11.49321 0.60697,1.82093 1.82093,3.67903 3.03489,5.49998 1.21396,1.82094 2.65584,3.03489 4.47679,4.24885 1.82094,1.21396 3.45111,2.99774 4.66507,4.81869 1.21395,1.82093 1.21395,4.24885 0,5.46281 -1.21396,1.21395 -3.64188,1.21395 -5.46281,1.21395 -1.82095,0 -3.03491,0 -5.46283,-2.42791 -2.42791,-2.42792 -6.069785,-7.28376 -9.10468,-11.53261 -3.034905,-4.24887 -28.77044,-36.028413 -29.985864,-39.062718 0,0 -2.312923,0.966188 -2.312923,0.966188 1.969616,3.897993 23.640611,34.93477 26.22543,38.93882 0.736112,1.14029 -16.239218,4.08353 -17.453177,4.08353 0,0 0.606983,2.91635 0.606983,2.91635 7.705662,-0.23248 14.456766,-1.96651 21.705593,-1.16539 3.511308,6.45759 1.341387,8.77167 -1.213968,11.53261 -1.749215,1.88993 -4.806827,4.46572 -6.47791,6.99911 -1.176269,1.78323 -1.820941,4.53349 -1.820941,6.35444 0,1.82093 0.550262,10.35978 0.550262,11.57374 z"
       id="Trunk"
       style="fill:#502d16;stroke:none;stroke-width:1.20182" />
    <path
       d="m 217.94159,129.22512 c -3.1139,1.49263 -8.5795,14.48478 -19.7887,10.33442 6.93592,5.8829 4.8587,11.98512 4.37843,16.44707 -1.34333,0.61954 -10.95032,0.25012 -11.56143,-1.78269 -0.67001,-0.38008 -2.24,1.88564 -3.06565,1.84237 -0.61563,-0.10131 -6.67943,-6.8956 -6.95177,-8.22727 -0.76045,0.0291 -1.54902,1.91281 -2.71508,1.78271 -0.41281,-0.0216 -10.67694,-10.90245 -1.62606,-20.39661 -9.05088,-9.49411 1.21325,-20.37496 1.62606,-20.39661 1.16606,-0.13009 1.95463,1.76102 2.71508,1.79017 0.27234,-1.33166 6.33614,-8.13347 6.95177,-8.23473 0.82565,-0.0433 2.39564,2.22245 3.06565,1.84237 0.61111,-2.0328 10.2181,-2.39476 11.56143,-1.77523 0.48027,4.46192 2.55749,10.55673 -4.37843,16.43961 11.2092,-4.15033 16.6748,8.8418 19.7887,10.33442 z"
       id="Leaf"
       style="fill:#550000;stroke:none;stroke-width:1.20182" />
    <path
       d="m 33.175041,129.22512 c 3.113902,1.49263 8.579501,14.48478 19.788703,10.33442 -6.935916,5.8829 -4.858704,11.98512 -4.378433,16.44707 1.343334,0.61954 10.950319,0.25012 11.561432,-1.78269 0.670014,-0.38008 2.239999,1.88564 3.065649,1.84237 0.615632,-0.10131 6.679437,-6.8956 6.951769,-8.22727 0.760451,0.0291 1.549025,1.91281 2.715078,1.78271 0.412813,-0.0216 10.676941,-10.90245 1.626062,-20.39661 9.050879,-9.49411 -1.213249,-20.37496 -1.626062,-20.39661 -1.166053,-0.13009 -1.954627,1.76102 -2.715078,1.79017 -0.272332,-1.33166 -6.336137,-8.13347 -6.951769,-8.23473 -0.82565,-0.0433 -2.395635,2.22245 -3.065649,1.84237 -0.611113,-2.0328 -10.218098,-2.39476 -11.561432,-1.77523 -0.480271,4.46192 -2.557483,10.55673 4.378433,16.43961 -11.209202,-4.15033 -16.674801,8.8418 -19.788703,10.33442 z"
       id="Leaf-2"
       style="fill:#550000;stroke:none;stroke-width:1.20182" />
    <path
       d="m 212.61693,53.099736 c -0.85817,3.344827 5.58117,15.882913 -4.80332,21.801859 8.96487,-1.531764 12.30425,3.981911 15.41359,7.217906 -0.38889,1.427285 -6.84714,8.549201 -8.79718,7.71067 -0.72184,0.268953 0.005,2.928007 -0.55922,3.532681 -0.47333,0.406478 -9.57581,0.684328 -10.77097,0.03697 -0.46652,0.601233 0.4696,2.416149 -0.37958,3.225771 -0.28192,0.302329 -15.21477,1.171042 -16.66991,-11.865059 -13.09071,0.830671 -14.82827,-14.026184 -14.57949,-14.35633 0.64986,-0.976872 2.60543,-0.365371 3.11657,-0.929169 -0.84507,-1.064596 -2.15781,-10.081859 -1.83966,-10.618548 0.49758,-0.660296 3.24238,-0.406601 3.3819,-1.164169 -1.1644,-1.7748 4.73358,-9.366836 6.07165,-9.997664 3.72673,2.500158 9.73083,4.826594 9.77906,13.921257 4.02581,-11.254523 17.49157,-7.090229 20.63656,-8.516175 z"
       id="Leaf-3"
       style="fill:#550000;stroke:none;stroke-width:1.20182" />
    <path
       d="m 38.734778,53.099736 c 0.858171,3.344827 -5.581165,15.882913 4.803324,21.801859 -8.964876,-1.531764 -12.304252,3.981911 -15.413587,7.217906 0.388884,1.427285 6.847138,8.549201 8.797174,7.71067 0.721837,0.268953 -0.0048,2.928007 0.559219,3.532681 0.473336,0.406478 9.575809,0.684328 10.770971,0.03697 0.466522,0.601233 -0.469599,2.416149 0.379582,3.225771 0.281923,0.302329 15.214771,1.171042 16.66991,-11.865059 C 78.392082,85.591203 80.129636,70.734348 79.880859,70.404202 79.231,69.42733 77.275435,70.038831 76.764289,69.475033 77.609361,68.410437 78.922096,59.393174 78.60395,58.856485 78.106373,58.196189 75.361573,58.449884 75.222054,57.692316 76.386449,55.917516 70.488472,48.32548 69.150402,47.694652 65.423668,50.19481 59.41957,52.521246 59.371341,61.615909 55.345534,50.361386 41.879772,54.52568 38.734778,53.099734 Z"
       id="Leaf-4"
       style="fill:#550000;stroke:none;stroke-width:1.20182" />
    <path
       d="m 126.16717,12.946945 c 1.81659,3.789733 17.62851,10.44157 12.57738,24.083583 7.15969,-8.441267 14.58634,-5.913222 20.01669,-5.328714 0.75399,1.634887 0.30441,13.326943 -2.16961,14.07069 -0.46257,0.815432 2.2949,2.726162 2.24224,3.731008 -0.1233,0.749248 -8.3922,8.129121 -10.01289,8.46056 0.0353,0.925498 2.32796,1.885221 2.16962,3.304351 -0.0263,0.502409 -13.26869,12.994232 -24.82343,1.978978 -11.55468,11.015254 -24.79708,-1.476569 -24.82342,-1.978978 -0.15833,-1.41913 2.14321,-2.378853 2.1787,-3.304351 -1.62069,-0.331439 -9.898739,-7.711312 -10.021976,-8.46056 -0.05265,-1.004846 2.704796,-2.915576 2.24224,-3.731008 -2.474002,-0.743747 -2.914518,-12.435803 -2.160531,-14.07069 5.430321,-0.584508 12.847927,-3.112553 20.007607,5.328714 -5.05109,-13.642013 10.76081,-20.29385 12.57738,-24.083583 z"
       id="Leaf-5"
       style="fill:#550000;stroke:none;stroke-width:1.46266" />
  </g>
  <g
     id="g1026"
     transform="matrix(1.119893,0,0,1.119893,-301.79748,-31.292791)">
    <path
       id="rect981"
       style="opacity:1;fill:#502d16;stroke-width:18.8169"
       d="m 386.66016,97.189453 c -0.51865,0 -1.99805,29.980467 -1.99805,29.980467 -0.24963,0.32413 -1.31117,-0.48378 -2.57617,-1.16406 -3.57452,-1.92224 -4.55458,-5.472 -5.20508,-8.61328 l -0.27344,0.1875 c 0,0.58239 0.59666,4.64009 0.88281,5.51367 0.28615,0.87358 0.85933,1.76508 1.43165,2.63867 0.57231,0.87358 1.2509,1.45472 2.10937,2.03711 0.85846,0.58239 1.62691,1.43891 2.19922,2.3125 0.5723,0.87358 0.5723,2.03871 0,2.62109 -0.57231,0.5824 -1.71576,0.58204 -2.57422,0.58204 -0.85847,0 -1.43155,7.1e-4 -2.57617,-1.16407 -1.14461,-1.16478 -2.8622,-3.49484 -4.29297,-5.5332 -1.43077,-2.03837 -13.56177,-17.28454 -14.13477,-18.74023 l -1.09179,0.46289 c 0.92855,1.87004 11.14469,16.76072 12.36328,18.68164 0.34703,0.54704 -7.65425,1.95898 -8.22656,1.95898 l 0.28515,1.39844 c 3.63276,-0.11153 6.81504,-0.94292 10.23242,-0.55859 1.65538,3.09799 0.63244,4.20865 -0.57226,5.5332 -0.82465,0.90668 -2.26492,2.14204 -3.05274,3.35742 -0.55454,0.85549 -0.85937,2.17524 -0.85937,3.04883 0,0.87358 0.25976,4.96839 0.25976,5.55078 l 0.27344,-0.0762 c 0,-0.58239 0.34861,-4.67897 0.63477,-5.84375 0.28615,-1.16478 1.31436,-2.83523 2.45898,-4 1.14461,-1.16478 2.86124,-1.74628 4.00586,-1.45508 1.14462,0.29119 1.71675,1.45614 2.28906,2.91211 0.57231,1.45597 1.78907,3.31125 1.78907,5.34961 0,2.03836 -0.57227,4.36789 -0.57227,6.40625 0,2.03836 0.57322,3.78604 0.85938,5.5332 0.28615,1.74718 0.28615,3.49519 0,4.95117 -0.28616,1.45597 -0.85938,2.62038 -0.85938,3.78516 0,0.22957 0.0346,0.45961 0.0703,0.69141 h 13.72657 c 0.13309,-1.27915 0.51171,-2.68311 0.51171,-3.89454 0,-1.45598 -0.57226,-2.6202 -0.57226,-4.07617 0,-1.45598 0.57226,-3.20417 0.57226,-4.66015 0,-1.45597 -0.57226,-2.62021 -0.57226,-4.07618 0,-1.45597 0.57127,-3.20382 0.85742,-5.24218 0.28615,-2.03836 -0.35846,-4.47781 0.5,-5.64258 0.85846,-1.16478 2.57604,-1.16442 4.29297,-0.58203 1.71693,0.58239 3.4345,1.74733 4.29297,2.91211 0.85845,1.16478 1.76853,6.25355 2.05469,6.83594 l 0.36718,0.084 c 0,-0.87359 -0.5302,-6.80592 -1.38867,-7.9707 -0.85846,-1.16478 -2.05554,-3.01635 -3.13086,-3.58985 -2.04229,-1.08922 -0.64385,-3.75626 0.18945,-5.84179 0.24102,-0.60318 0.85738,-1.16585 1.42969,-1.45704 0.57231,-0.2912 8.17278,2.35547 9.03125,2.35547 0.0954,-0.77652 0.0765,-0.50669 0.17188,-1.2832 -0.5723,0 -9.1478,-2.71107 -8.75196,-3.22266 3.75575,-6.53392 8.90244,-12.03747 13.19336,-18.1875 l -1.375,-0.81445 c -4.83179,6.46902 -9.88126,12.63253 -14.27148,19.40625 -1.43077,2.03836 -3.14835,4.36842 -4.29297,5.5332 -1.14462,1.16478 -1.71577,1.16407 -2.57422,1.16407 -0.85847,0 -2.00386,3.5e-4 -2.57617,-0.58204 -0.57231,-0.58239 -0.57231,-1.74751 0,-2.62109 0.57231,-0.87359 0.95795,-1.84339 1.81641,-2.42578 0.85847,-0.58239 1.58198,-1.31783 2.15429,-2.19141 0.57231,-0.87359 1.29588,-1.57563 1.58203,-2.44922 0.28615,-0.87358 1.11524,-4.84339 1.11524,-5.42578 l -0.27344,-0.27929 c -0.83595,3.32391 -1.61851,6.15105 -5.25,8.69531 -1.17848,0.82565 -2.3531,1.50766 -2.57617,1.16406 0,0 -1.47743,-29.980467 -1.99609,-29.980467 z" />
    <g
       transform="matrix(0.21563297,0,0,0.21943102,309.75934,96.606161)"
       id="g885"
       style="fill:#c8ab37">
      <g
         transform="rotate(-25.999994,196.49998,231.50018)"
         id="g877"
         style="fill:#c8ab37">
        <path
           d="m 270.17955,263.82918 c 11.25748,2.02058 8.10376,10.58145 7.21634,14.43267 4.3298,10.96883 14.43266,28.56069 14.43266,31.17456 4.04115,7.21633 2.67874,27.93097 -4.41329,29.39557 -12.64369,2.25445 -20.65271,-11.35853 -21.56551,-14.09694 -4.47412,-12.55642 1.5876,-45.02993 1.44327,-51.95761 0,-1.73192 -1.73192,-8.94825 2.88653,-8.94825 z"
           id="path873"
           style="fill:#c8ab37;stroke:none" />
        <path
           d="m 266.57849,273.24319 c 8.08229,7.21633 24.3841,37.63649 27.55929,45.71878"
           id="path875"
           style="fill:#c8ab37;stroke:#333333;stroke-width:1px" />
      </g>
      <g
         transform="matrix(-0.898794,-0.438371,-0.438371,0.898794,632.00439,109.5691)"
         id="g883"
         style="fill:#c8ab37">
        <path
           d="m 270.17955,263.82918 c 11.25748,2.02058 8.10376,10.58145 7.21634,14.43267 4.3298,10.96883 14.43266,28.56069 14.43266,31.17456 4.04115,7.21633 2.67874,27.93097 -4.41329,29.39557 -12.64369,2.25445 -20.65271,-11.35853 -21.56551,-14.09694 -4.47412,-12.55642 1.5876,-45.02993 1.44327,-51.95761 0,-1.73192 -1.73192,-8.94825 2.88653,-8.94825 z"
           id="path879"
           style="fill:#c8ab37;stroke:none" />
        <path
           d="m 266.57849,273.24319 c 8.08229,7.21633 24.3841,37.63649 27.55929,45.71878"
           id="path881"
           style="fill:#c8ab37;stroke:#333333;stroke-width:1px" />
      </g>
    </g>
    <g
       transform="matrix(-0.21563297,0,0,0.21943102,465.07313,96.606171)"
       id="g899"
       style="fill:#c8ab37;stroke:none">
      <g
         transform="rotate(-25.999994,196.49998,231.50018)"
         id="g891"
         style="fill:#c8ab37">
        <path
           d="m 270.17955,263.82918 c 11.25748,2.02058 8.10376,10.58145 7.21634,14.43267 4.3298,10.96883 14.43266,28.56069 14.43266,31.17456 4.04115,7.21633 2.67874,27.93097 -4.41329,29.39557 -12.64369,2.25445 -20.65271,-11.35853 -21.56551,-14.09694 -4.47412,-12.55642 1.5876,-45.02993 1.44327,-51.95761 0,-1.73192 -1.73192,-8.94825 2.88653,-8.94825 z"
           id="path887"
           style="fill:#c8ab37;stroke:none" />
        <path
           d="m 266.57849,273.24319 c 8.08229,7.21633 24.3841,37.63649 27.55929,45.71878"
           id="path889"
           style="fill:#c8ab37;stroke:#333333;stroke-width:1px" />
      </g>
      <g
         transform="matrix(-0.898794,-0.438371,-0.438371,0.898794,632.00439,109.5691)"
         id="g897"
         style="fill:#c8ab37">
        <path
           d="m 270.17955,263.82918 c 11.25748,2.02058 8.10376,10.58145 7.21634,14.43267 4.3298,10.96883 14.43266,28.56069 14.43266,31.17456 4.04115,7.21633 2.67874,27.93097 -4.41329,29.39557 -12.64369,2.25445 -20.65271,-11.35853 -21.56551,-14.09694 -4.47412,-12.55642 1.5876,-45.02993 1.44327,-51.95761 0,-1.73192 -1.73192,-8.94825 2.88653,-8.94825 z"
           id="path893"
           style="fill:#c8ab37;stroke:none" />
        <path
           d="m 266.57849,273.24319 c 8.08229,7.21633 24.3841,37.63649 27.55929,45.71878"
           id="path895"
           style="fill:#c8ab37;stroke:#333333;stroke-width:1px" />
      </g>
    </g>
    <g
       transform="matrix(0.20507925,-0.06780792,-0.06663426,-0.20869141,335.6548,184.19169)"
       id="g913"
       style="fill:#c8ab37;stroke:none">
      <g
         transform="rotate(-25.999994,196.49998,231.50018)"
         id="g905"
         style="fill:#c8ab37">
        <path
           d="m 270.17955,263.82918 c 11.25748,2.02058 8.10376,10.58145 7.21634,14.43267 4.3298,10.96883 14.43266,28.56069 14.43266,31.17456 4.04115,7.21633 2.67874,27.93097 -4.41329,29.39557 -12.64369,2.25445 -20.65271,-11.35853 -21.56551,-14.09694 -4.47412,-12.55642 1.5876,-45.02993 1.44327,-51.95761 0,-1.73192 -1.73192,-8.94825 2.88653,-8.94825 z"
           id="path901"
           style="fill:#c8ab37;stroke:none" />
        <path
           d="m 266.57849,273.24319 c 8.08229,7.21633 24.3841,37.63649 27.55929,45.71878"
           id="path903"
           style="fill:#c8ab37;stroke:#333333;stroke-width:1px" />
      </g>
      <g
         transform="matrix(-0.898794,-0.438371,-0.438371,0.898794,632.00439,109.5691)"
         id="g911"
         style="fill:#c8ab37">
        <path
           d="m 270.17955,263.82918 c 11.25748,2.02058 8.10376,10.58145 7.21634,14.43267 4.3298,10.96883 14.43266,28.56069 14.43266,31.17456 4.04115,7.21633 2.67874,27.93097 -4.41329,29.39557 -12.64369,2.25445 -20.65271,-11.35853 -21.56551,-14.09694 -4.47412,-12.55642 1.5876,-45.02993 1.44327,-51.95761 0,-1.73192 -1.73192,-8.94825 2.88653,-8.94825 z"
           id="path907"
           style="fill:#c8ab37;stroke:none" />
        <path
           d="m 266.57849,273.24319 c 8.08229,7.21633 24.3841,37.63649 27.55929,45.71878"
           id="path909"
           style="fill:#c8ab37;stroke:#333333;stroke-width:1px" />
      </g>
    </g>
    <g
       transform="matrix(-0.20507925,-0.06780792,0.06663426,-0.20869141,439.27003,184.19169)"
       id="g927"
       style="fill:#c8ab37;stroke:none">
      <g
         transform="rotate(-25.999994,196.49998,231.50018)"
         id="g919"
         style="fill:#c8ab37">
        <path
           d="m 270.17955,263.82918 c 11.25748,2.02058 8.10376,10.58145 7.21634,14.43267 4.3298,10.96883 14.43266,28.56069 14.43266,31.17456 4.04115,7.21633 2.67874,27.93097 -4.41329,29.39557 -12.64369,2.25445 -20.65271,-11.35853 -21.56551,-14.09694 -4.47412,-12.55642 1.5876,-45.02993 1.44327,-51.95761 0,-1.73192 -1.73192,-8.94825 2.88653,-8.94825 z"
           id="path915"
           style="fill:#c8ab37;stroke:none" />
        <path
           d="m 266.57849,273.24319 c 8.08229,7.21633 24.3841,37.63649 27.55929,45.71878"
           id="path917"
           style="fill:#c8ab37;stroke:#333333;stroke-width:1px" />
      </g>
      <g
         transform="matrix(-0.898794,-0.438371,-0.438371,0.898794,632.00439,109.5691)"
         id="g925"
         style="fill:#c8ab37">
        <path
           d="m 270.17955,263.82918 c 11.25748,2.02058 8.10376,10.58145 7.21634,14.43267 4.3298,10.96883 14.43266,28.56069 14.43266,31.17456 4.04115,7.21633 2.67874,27.93097 -4.41329,29.39557 -12.64369,2.25445 -20.65271,-11.35853 -21.56551,-14.09694 -4.47412,-12.55642 1.5876,-45.02993 1.44327,-51.95761 0,-1.73192 -1.73192,-8.94825 2.88653,-8.94825 z"
           id="path921"
           style="fill:#c8ab37;stroke:none" />
        <path
           d="m 266.57849,273.24319 c 8.08229,7.21633 24.3841,37.63649 27.55929,45.71878"
           id="path923"
           style="fill:#c8ab37;stroke:#333333;stroke-width:1px" />
      </g>
    </g>
    <path
       d="m 430.82862,129.57679 c -1.46802,0.71608 -4.04472,6.94899 -9.32919,4.95788 3.26987,2.82228 2.29059,5.74978 2.06417,7.89038 -0.6333,0.29722 -5.16242,0.11999 -5.45052,-0.85524 -0.31587,-0.18234 -1.05603,0.90463 -1.44527,0.88387 -0.29024,-0.0486 -3.14896,-3.30812 -3.27735,-3.94698 -0.3585,0.014 -0.73027,0.91765 -1.28,0.85524 -0.19461,-0.0104 -5.03353,-5.23038 -0.76659,-9.78515 -4.26694,-4.55474 0.57198,-9.77476 0.76659,-9.78515 0.54973,-0.0624 0.9215,0.84484 1.28,0.85883 0.12839,-0.63886 2.98711,-3.90198 3.27735,-3.95056 0.38924,-0.0208 1.1294,1.0662 1.44527,0.88386 0.2881,-0.97522 4.81722,-1.14887 5.45052,-0.85165 0.22642,2.14057 1.2057,5.06452 -2.06417,7.8868 5.28447,-1.9911 7.86117,4.2418 9.32919,4.95787 z"
       id="path931"
       style="fill:#550000;stroke:none;stroke-width:0.571554" />
    <path
       d="m 343.72225,129.57679 c 1.46802,0.71608 4.04473,6.94899 9.32919,4.95788 -3.26987,2.82228 -2.29058,5.74978 -2.06417,7.89038 0.63331,0.29722 5.16242,0.11999 5.45053,-0.85524 0.31587,-0.18234 1.05602,0.90463 1.44527,0.88387 0.29023,-0.0486 3.14895,-3.30812 3.27734,-3.94698 0.35851,0.014 0.73027,0.91765 1.28,0.85524 0.19461,-0.0104 5.03353,-5.23038 0.76659,-9.78515 4.26694,-4.55474 -0.57198,-9.77476 -0.76659,-9.78515 -0.54973,-0.0624 -0.92149,0.84484 -1.28,0.85883 -0.12839,-0.63886 -2.98711,-3.90198 -3.27734,-3.95056 -0.38925,-0.0208 -1.1294,1.0662 -1.44527,0.88386 -0.28811,-0.97522 -4.81722,-1.14887 -5.45053,-0.85165 -0.22641,2.14057 -1.2057,5.06452 2.06417,7.8868 -5.28446,-1.9911 -7.86117,4.2418 -9.32919,4.95787 z"
       id="path933"
       style="fill:#550000;stroke:none;stroke-width:0.571554" />
    <path
       d="m 428.31836,93.056109 c -0.40458,1.60466 2.63119,7.619731 -2.26448,10.459311 4.2264,-0.73486 5.80072,1.91029 7.26659,3.46274 -0.18334,0.68473 -3.22802,4.10143 -4.14735,3.69915 -0.3403,0.12903 0.002,1.40469 -0.26364,1.69478 -0.22314,0.19501 -4.51442,0.3283 -5.07786,0.0177 -0.21994,0.28843 0.22138,1.15913 -0.17895,1.54754 -0.13291,0.14504 -7.17286,0.5618 -7.85887,-5.69219 -6.17148,0.39851 -6.99064,-6.72897 -6.87335,-6.88736 0.30637,-0.46865 1.2283,-0.17528 1.46927,-0.44576 -0.3984,-0.51074 -1.01728,-4.836712 -0.86729,-5.094185 0.23458,-0.316773 1.52859,-0.195064 1.59437,-0.558503 -0.54895,-0.851449 2.2316,-4.493682 2.86242,-4.796317 1.75693,1.199435 4.5875,2.315528 4.61024,6.678637 1.89793,-5.399288 8.24622,-3.401494 9.7289,-4.085583 z"
       id="path935"
       style="fill:#550000;stroke:none;stroke-width:0.571554" />
    <path
       d="m 346.34334,93.056109 c 0.40457,1.60466 -2.63119,7.619731 2.26448,10.459311 -4.2264,-0.73486 -5.80072,1.91029 -7.26659,3.46274 0.18334,0.68473 3.22802,4.10143 4.14735,3.69915 0.3403,0.12903 -0.002,1.40469 0.26363,1.69478 0.22315,0.19501 4.51442,0.3283 5.07787,0.0177 0.21994,0.28843 -0.22139,1.15913 0.17895,1.54754 0.13291,0.14504 7.17285,0.5618 7.85887,-5.69219 6.17148,0.39851 6.99063,-6.72897 6.87335,-6.88736 -0.30637,-0.46865 -1.2283,-0.17528 -1.46928,-0.44576 0.39841,-0.51074 1.01728,-4.836713 0.86729,-5.094186 -0.23457,-0.316773 -1.52858,-0.195064 -1.59436,-0.558503 0.54895,-0.851449 -2.2316,-4.493682 -2.86242,-4.796317 -1.75693,1.199435 -4.5875,2.315528 -4.61024,6.678637 -1.89793,-5.399288 -8.24623,-3.401494 -9.7289,-4.085583 z"
       id="path937"
       style="fill:#550000;stroke:none;stroke-width:0.571554" />
    <path
       d="m 387.56247,73.793056 c 0.85642,1.818101 8.31079,5.009279 5.92949,11.55395 3.37536,-4.049646 6.87658,-2.836832 9.43667,-2.556418 0.35546,0.784327 0.14351,6.393519 -1.02284,6.750327 -0.21808,0.391198 1.0819,1.307859 1.05708,1.789928 -0.0581,0.359447 -3.95642,3.899896 -4.72048,4.058901 0.0166,0.444002 1.09749,0.904423 1.02285,1.585242 -0.0124,0.241028 -6.2554,6.233904 -11.70277,0.949403 -5.44734,5.284501 -11.69033,-0.708375 -11.70275,-0.949403 -0.0746,-0.680819 1.01039,-1.14124 1.02713,-1.585242 -0.76406,-0.159005 -4.66667,-3.699454 -4.72477,-4.058901 -0.0248,-0.482069 1.27515,-1.39873 1.05709,-1.789928 -1.16635,-0.356808 -1.37403,-5.966 -1.01857,-6.750327 2.56008,-0.280414 6.05703,-1.493228 9.43239,2.556418 -2.38128,-6.544671 5.07308,-9.735849 5.92948,-11.55395 z"
       id="path939"
       style="fill:#550000;stroke:none;stroke-width:0.695603" />
  </g>
  <path
     id="rect979"
     style="fill:#502d16;stroke-width:22.3979"
     d="m 123.69405,181.87367 c 0.16287,1.0575 0.56214,2.15548 0.56214,3.46467 0,1.63053 -0.64088,3.58813 -0.64088,5.54478 0,1.95664 0.64195,3.91145 0.96241,6.5203 0.32046,2.60886 0.32046,5.87128 0,8.48014 -0.32046,2.60885 -0.9612,4.56507 -2.56351,4.23897 -1.60232,-0.32611 -4.16659,-2.93535 -6.73029,-2.93535 -2.5637,0 -5.12789,2.60944 -8.01205,2.60944 -2.88416,0 -6.08921,-2.60904 -8.652918,-3.26125 -2.563693,-0.65222 -4.485989,0.65161 -6.408767,0.97772 -1.922767,0.3261 -3.846284,-0.32591 -4.807667,-0.32591 -0.961395,0 -0.960264,0.6536 -0.319338,1.30582 0.640926,0.65221 1.922532,1.30342 3.204384,1.62953 1.281841,0.3261 2.563446,0.3257 3.204372,0.65181 0.640926,0.3261 0.64199,0.97951 0.321533,1.63172 -0.320469,0.65221 -0.962403,1.30343 -0.962403,1.62953 0,0.32612 0.641889,0.32631 1.603284,-0.32591 0.961383,-0.65221 2.243,-1.95722 3.204383,-2.60944 0.961384,-0.65221 1.601089,-0.65201 1.601089,-0.3259 0,0.3261 -0.639806,0.97971 -0.319338,1.30581 0.320458,0.32611 1.601046,0.32571 2.241966,0.65181 0.64093,0.32611 0.64093,0.97713 0,1.95545 -0.64092,0.97831 -1.922628,2.28312 -1.922628,2.93534 0,0.65222 1.281658,0.65222 2.563518,0 1.28185,-0.65222 2.56452,-1.95743 3.5259,-2.28353 0.96138,-0.32612 1.60324,0.32809 2.24416,0.32809 0.64093,0 1.28065,-0.65421 1.6011,-0.32809 0.32047,0.3261 0.32158,1.6309 -0.31934,2.93534 -0.64093,1.30441 -1.92258,2.60884 -2.56351,3.58716 -0.64092,0.97832 -0.64205,1.63172 0.31934,1.63172 0.96138,0 2.88495,-0.65203 4.1668,-0.32591 1.28184,0.3261 1.92257,1.62914 2.5635,2.28134 0.64093,0.65222 1.28063,0.65201 1.6011,0.32591 0.32046,-0.32611 0.32158,-0.97712 -0.31935,-1.95544 -0.64092,-0.97833 -1.92369,-2.28253 -2.24415,-3.91307 -0.32047,-1.63053 0.32147,-3.58854 0.9624,-4.89296 0.64093,-1.30442 1.28171,-1.95544 1.92263,-1.95544 0.64093,0 1.28062,0.65122 1.6011,1.62954 0.32046,0.97831 0.32259,2.28312 0.64306,2.93534 0.32044,0.65222 0.9613,0.65222 1.28175,0 0.32047,-0.65222 0.3193,-1.95743 0.96023,-2.28353 0.64091,-0.32612 1.92364,0.32788 2.88503,0.65399 0.96139,0.3261 1.6011,0.32551 1.6011,0.97772 0,0.65222 -0.63971,1.95702 -1.6011,2.93534 -0.96139,0.97832 -2.24412,1.63094 -2.88503,2.93536 -0.64093,1.30443 -0.63981,3.26063 -0.31935,4.23896 0.32047,0.97832 0.96128,0.97812 1.28175,0.32591 0.32046,-0.65221 0.31929,-1.95702 0.96022,-2.93534 0.64092,-0.97833 1.92366,-1.62953 2.88504,-1.62953 0.9614,0 1.60217,0.6512 1.92263,1.62953 0.32045,0.97832 0.31929,2.28332 0.96021,2.60943 0.64093,0.3261 1.92264,-0.32709 1.92264,-1.95762 0,-1.63054 -1.28175,-4.23976 -1.28175,-6.5225 0,-2.28276 1.28278,-4.23836 2.24416,-5.21669 0.96138,-0.97832 1.60212,-0.97792 2.5635,-0.65182 0.96139,0.32611 2.243,0.97713 3.20439,1.95545 0.96138,0.97831 1.6022,2.28292 1.28175,3.26125 -0.32047,0.97831 -1.60212,1.63111 -2.56351,2.60943 -0.96139,0.97833 -1.6011,2.28253 -1.6011,3.91307 0,1.63053 0.63975,3.58695 0.96022,3.91306 0.32046,0.3261 0.32148,-0.97911 0.96242,-2.28354 0.64092,-1.30442 1.92144,-2.60684 2.88284,-3.25905 0.96138,-0.65222 1.60325,-0.65421 2.24416,-0.3281 0.64093,0.3261 1.28175,0.97909 1.28175,2.28353 0,1.30442 -0.64092,3.26105 0,3.58716 0.64093,0.3261 2.56239,-0.97871 2.88285,-2.93535 0.32046,-1.95664 -0.96125,-4.56586 -1.92263,-6.5225 -0.96138,-1.95665 -1.60225,-3.26105 -0.64087,-3.58715 0.96138,-0.32612 3.52693,0.32769 4.48832,0.9799 0.96138,0.65222 0.32041,1.30342 0.64088,1.62954 0.32046,0.32611 1.60104,0.32631 2.24197,-0.32591 0.64092,-0.65222 0.64193,-1.95723 0.9624,-2.60944 0.32046,-0.65221 0.96018,-0.65221 1.6011,0 0.64094,0.65221 1.2818,1.95662 0.64088,3.58716 -0.64093,1.63053 -2.56346,3.58833 -3.20438,5.21887 -0.64093,1.63053 -4e-5,2.93514 0.64087,3.26125 0.64093,0.3261 1.28171,-0.32749 1.92263,-1.30581 0.64094,-0.97831 1.28278,-2.28115 2.24417,-2.60725 0.96139,-0.32612 2.24299,0.32591 3.20438,0.32591 0.96138,0 1.60109,-0.65361 1.60109,-1.30582 0,-0.6522 -0.64083,-1.30342 -1.28175,-1.62953 -0.64093,-0.32611 -1.28064,-0.32531 -1.6011,-1.30363 -0.32046,-0.97831 -0.3204,-2.93673 -0.64087,-4.24115 -0.32046,-1.30442 -0.96246,-1.95544 -0.32153,-1.95544 0.64092,0 2.56339,0.65162 3.84525,0.97772 1.28184,0.32612 1.92477,0.32551 2.5657,0.97772 0.64092,0.65221 1.28175,1.95702 1.28175,2.93535 0,0.97831 -0.64088,1.63131 -0.64088,2.28353 0,0.65221 0.64083,1.30383 1.28176,0.97772 0.64093,-0.3261 1.28057,-1.63133 2.24197,-2.28354 0.96138,-0.65221 2.24411,-0.6516 2.88503,-0.97771 0.64093,-0.32612 0.64093,-0.97754 0,-1.30364 -0.64092,-0.32611 -1.92365,-0.32549 -2.88503,-0.97771 -0.9614,-0.65221 -1.60222,-1.95743 -1.28175,-2.28353 0.32046,-0.32611 1.60212,0.3261 2.5635,0 0.9614,-0.32611 1.60319,-1.63152 2.88504,-1.95763 1.28185,-0.32611 3.20423,0.32611 5.12701,0 1.92277,-0.32611 3.84521,-1.62893 4.48614,-2.60725 0.64092,-0.97832 10e-4,-1.63192 -0.96023,-1.30581 -0.9614,0.3261 -2.24402,1.63172 -4.16679,1.63172 -1.92278,0 -4.48594,-1.30601 -7.04964,-0.97991 -2.5637,0.32611 -5.12901,2.28373 -7.6927,1.95763 -2.56371,-0.32611 -5.12575,-2.93515 -7.36898,-3.26125 -2.24325,-0.32611 -4.16666,1.63152 -6.08942,1.95762 -1.92279,0.32611 -3.84516,-0.97891 -5.12701,-2.60944 -1.28184,-1.63055 -1.9237,-3.58795 -2.24416,-5.87068 -0.32047,-2.28276 -0.32047,-4.89157 0,-7.17432 0.32046,-2.28274 0.9624,-4.23798 0.9624,-5.86851 0,-1.63054 -0.64087,-2.93652 -0.64087,-4.56705 0,-0.27386 0.0377,-0.56607 0.0678,-0.85523 z" />
  <path
     fill="none"
     stroke="#000000"
     stroke-width="2.68109"
     d="M 29.898954,4.796601 H 229.29437 V 235.11718 c 0,69.09618 -87.73399,30.04182 -99.69771,60.08363 -11.96373,-30.04181 -99.697706,9.01255 -99.697706,-60.08363 v 0 z"
     id="path1084"
     style="fill:none" />
  <g
     id="g1227">
    <path
       id="path190286"
       style="fill:#000000;fill-opacity:1;stroke:none;stroke-width:0.600334"
       d="m 188.25907,216.27589 c -0.0374,-1.95681 0.76397,-8.33831 2.61592,-5.36713 m 0,0 -0.23084,3.23248 c 0.15404,1.18349 0.60334,2.5449 0.99871,3.0264 0.59997,0.72915 0.79766,0.48153 1.18557,-1.48618 l 0.46515,-2.36138 0.51458,2.23826 c 0.49002,2.13451 0.57615,2.20072 1.86204,1.42324 0.74161,-0.44836 1.80554,-1.81125 2.36411,-3.02807 0.79505,-1.732 0.83332,-2.77187 0.17688,-4.78685 -0.78289,-2.40325 -0.73242,-2.63366 0.76234,-3.47432 0.88048,-0.49516 1.54075,-1.08479 1.46729,-1.31036 -0.0734,-0.22555 -1.13466,-1.73774 -2.35865,-3.36028 -1.22398,-1.62254 -2.17116,-3.00384 -2.10477,-3.06932 -1.79404,-3.66249 1.70642,4.07252 -3.62007,-4.84738 -1.87221,-3.14548 -3.81446,-5.07126 -4.79267,-4.75258 -0.33774,0.11004 -1.65705,0.0654 -2.93266,-0.0991 -4.8507,-0.625 -7.2093,-4.70869 -7.16097,-12.39742 l 0.0255,-4.11232 3.20264,-0.82871 c 4.08416,-1.05653 4.68841,-0.74947 4.30443,2.18631 -0.34488,2.63704 0.0736,4.43411 1.08968,4.6813 0.37715,0.0917 0.92273,0.89438 1.2122,1.7829 0.58607,1.79911 2.28411,3.01239 5.24519,3.74932 l 1.97298,0.49181 -1.09106,-1.81988 c -1.29481,-2.16003 -1.71478,-3.66954 -2.19172,-7.87507 -0.67926,-5.9896 -5.09893,-8.66697 -9.7438,-5.9032 -2.83567,1.68722 -4.17126,1.55819 -6.64617,-0.63796 -3.87576,-3.43913 -20.73681,-9.55987 -29.68998,-10.77784 -6.12552,-0.83328 -5.73548,-0.7027 -4.94446,-1.63744 0.49824,-0.5888 -0.39914,-0.91184 -3.59491,-1.29158 -2.34291,-0.27835 -3.81445,-0.66402 -3.26976,-0.85736 1.80402,-0.64045 0.70827,-1.34915 -2.54796,-1.64743 -1.76656,-0.16186 -3.51717,-0.19477 -3.88983,-0.0734 -0.52221,0.17008 -0.58237,-0.0185 -0.26336,-0.81936 0.456,-1.14902 -1.04209,-1.22643 -7.85212,-0.40662 -3.37432,0.40621 -3.48906,0.36787 -2.89714,-0.95532 0.59479,-1.32959 0.49459,-1.33755 -2.87943,-0.23843 -3.01034,0.98066 -3.48806,0.99183 -3.44115,0.0812 0.0483,-0.93903 -0.39558,-0.87351 -3.98447,0.58641 -3.82637,1.55655 -4.0439,1.57895 -4.11304,0.41132 -0.0662,-1.11714 -0.26906,-1.13275 -2.156539,-0.16577 -1.145644,0.58701 -2.441733,1.35806 -2.880913,1.71415 -0.610891,0.49534 -0.784494,0.3753 -0.738816,-0.51156 0.05327,-1.03224 -0.117641,-0.94974 -1.558786,0.75319 -1.955435,2.31083 -2.313459,2.4715 -2.269899,1.01939 0.02653,-0.88433 -0.174199,-0.75029 -0.968092,0.64339 -0.953943,1.67445 -1.115082,1.7496 -3.358964,1.56775 -4.416542,-0.3579 -5.328508,1.08505 -1.748679,2.76716 1.025083,0.48167 1.967014,1.1927 2.093108,1.5798 0.301384,0.92519 -3.249919,7.05072 -6.962876,12.01024 -2.003869,2.67663 -4.070343,4.65006 -6.403094,6.1159 -1.894249,1.19028 -4.207996,2.96277 -5.142029,3.9379 -1.217874,1.27147 -2.036817,1.71235 -2.894302,1.55944 -1.884418,-0.33604 -2.44523,0.08 -1.990131,1.47702 0.5459,1.67574 4.264019,4.55219 5.86906,4.54002 0.685198,-0.006 2.107916,-0.58076 3.162327,-1.27803 2.001031,-1.3234 2.932597,-1.42303 3.281695,-0.35134 0.113733,0.34916 0.784637,0.96651 1.491245,1.37138 1.225834,0.70241 1.1716,0.77259 -1.186304,1.54071 l -2.471678,0.80514 1.813813,0.995 c 2.662372,1.46031 5.705803,1.07732 12.287538,-1.54754 6.232576,-2.48562 8.914013,-2.6494 10.981166,-0.66696 0.53778,0.51575 1.48238,0.7737 2.09924,0.57276 0.61683,-0.20093 1.19831,-0.12957 1.29222,0.15857 0.75562,2.31955 -1.0997,4.55751 -5.4821,6.61125 -3.209177,1.5039 -4.191851,2.45467 -6.203227,6.00264 -0.721745,1.27314 -1.928287,2.69672 -2.680964,3.16459 -1.347259,0.83743 -1.696584,1.37046 -5.004686,7.61488 -1.794069,3.38652 -1.891884,4.74514 -0.256898,3.57234 1.24496,-0.893 1.502619,-0.3486 0.693034,1.4612 -0.572575,1.27995 -0.51684,1.3227 1.052724,0.80885 2.03801,-0.66745 4.419791,-3.35745 5.0611,-5.7194 0.285321,-1.05094 1.013647,-1.93948 1.801473,-2.19611 0.815796,-0.26576 1.319864,-0.90812 1.314043,-1.6748 -0.01234,-1.58417 2.126323,-4.49702 3.670158,-4.99996 0.651572,-0.21224 2.096851,-1.14753 3.212303,-2.07856 3.07183,-2.56396 4.1131,-1.57421 1.75433,1.66793 -1.02238,1.40528 -2.171236,2.65694 -2.551883,2.78092 -0.380648,0.12402 -1.392218,1.2349 -2.249044,2.46896 -0.856848,1.2341 -2.527003,3.64706 -3.711209,5.3623 -1.184227,1.71522 -2.264942,3.74266 -2.400888,4.50506 -0.220104,1.23427 -0.127513,1.30263 0.839674,0.62422 3.609301,-2.53171 3.506386,-2.52573 2.389124,-0.1271 -1.184515,2.54296 -0.773779,2.98107 1.962057,2.08984 1.451203,-0.47275 2.283493,-1.27635 3.205146,-3.09609 0.684583,-1.35161 1.269563,-2.89177 1.299663,-3.42247 0.0432,-0.76105 0.21328,-0.84679 0.80519,-0.40529 0.83346,0.62165 1.64582,-0.74831 2.10516,-3.55043 0.33055,-2.01648 3.12111,-5.29713 5.75158,-6.76067 1.17209,-0.65213 4.97209,-2.14179 8.44407,-3.31059 4.28242,-1.44164 6.52472,-2.46049 6.97065,-3.16601 0.50943,-0.80601 1.4475,-1.15469 4.16982,-1.55076 1.93209,-0.28107 6.56152,-1.18378 10.28686,-2.0069 3.72538,-0.82312 7.86978,-1.565 9.21029,-1.64755 l 2.43713,-0.15014 -1.71297,1.88864 c -1.77472,1.95663 -2.15872,3.63729 -0.4159,1.81998 1.10076,-1.1478 5.19634,-2.63173 7.40343,-2.68181 0.79293,-0.0185 2.61647,0.51989 4.05204,1.19565 1.43553,0.67584 4.91648,1.40453 7.73517,1.61873 6.658,0.50594 8.95906,1.54532 11.20529,5.05962 1.55786,2.43731 1.75834,3.10213 1.64173,5.44854 -0.073,1.46998 0.0979,3.79329 0.3796,5.16292 0.2817,1.36964 0.26002,2.88953 -0.0479,3.37725 -1.65687,6.8474 1.34997,-0.90976 -0.97392,3.7826 -0.49485,1.87028 0.45444,1.89626 1.29266,0.85647 1.12865,-1.40768 1.14955,-1.40902 0.90768,-0.0526 -0.22286,1.24984 -0.0888,1.33552 1.34192,0.86759 2.19398,-0.71829 4.55958,-3.64914 4.43217,-5.49233 m -105.90595,-56.735 c -0.304838,0.0934 -0.573068,0.22068 -0.774971,0.38439 -0.643016,0.52141 -0.421225,0.82785 1.292922,1.79607 1.701251,0.96089 2.212127,0.99707 2.88118,0.20217 0.447263,-0.53147 0.616876,-1.32242 0.376843,-1.75798 -0.428979,-0.77836 -2.454176,-1.02705 -3.775974,-0.62459 z m 18.55238,3.56772 c 0.36613,-0.11559 0.92912,-0.0448 1.43428,0.21225 1.12841,0.57385 1.1028,0.66181 -0.32473,1.12684 -1.57639,0.51353 -2.30523,-0.0897 -1.39999,-1.15938 0.0687,-0.0812 0.16865,-0.14068 0.29044,-0.17975 z m -12.629517,4.55197 c 0.803847,-0.26187 2.042103,-0.18099 2.751899,0.18016 1.550621,0.78861 0.799178,1.57668 -1.169317,1.22561 -1.121519,-0.19991 -1.254277,-0.109 -0.74661,0.51701 0.394777,0.48685 0.287584,0.8682 -0.299779,1.05953 -0.50452,0.16432 -1.03045,-0.0185 -1.167815,-0.40883 -0.139647,-0.39245 -0.363392,-0.17913 -0.505713,0.48046 -0.271603,1.25882 -2.079801,2.1762 -2.908205,1.47516 -0.702741,-0.59468 2.305068,-3.96206 4.04554,-4.52904 z m 14.776537,-2.28808 c 0.94185,-0.30679 1.95549,-0.35288 2.25182,-0.10222 0.31339,0.26521 -0.1779,0.68936 -1.17421,1.0139 -0.94183,0.30681 -1.95437,0.35251 -2.25067,0.1018 -0.31344,-0.26524 0.17687,-0.68898 1.17306,-1.01352 z m 2.38459,1.1383 c 0.65248,-0.22325 1.17751,-0.0856 1.58047,0.41127 0.46803,0.57719 0.15322,0.89714 -1.37217,1.39407 -2.05248,0.66862 -2.90059,0.10325 -1.52187,-1.01486 0.48513,-0.3934 0.92201,-0.65673 1.31357,-0.79048 z m -0.1454,2.61608 c 0.24122,-0.0915 0.56194,-0.17235 0.97582,-0.26381 1.02821,-0.22605 2.07892,-0.12669 2.33376,0.22136 0.32993,0.45053 -0.11147,0.72781 -1.53203,0.96398 l -1.99453,0.33157 2.24913,0.12073 c 1.23702,0.0664 2.47077,0.52093 2.74217,1.00947 0.60453,1.0881 -0.43007,1.44442 -2.87894,0.99335 -1.26468,-0.23294 -1.9956,-0.79593 -2.31788,-1.78527 -0.31276,-0.96005 -0.30153,-1.3183 0.42246,-1.5915 z m -27.509648,11.09124 c 0.801975,-0.31105 1.523124,0.49656 1.045834,1.43508 -0.685116,1.34715 0.359073,3.60533 2.113099,4.56739 0.889918,0.48811 1.537623,1.2188 1.439068,1.62388 -0.35642,1.46503 -2.423655,1.45371 -4.14716,-0.0226 -0.954477,-0.81769 -1.806697,-1.70386 -1.89464,-1.97 -0.341447,-1.03316 0.439674,-4.89434 1.098649,-5.42868 0.114557,-0.0932 0.230573,-0.16042 0.34515,-0.20485 z m 3.392179,1.16892 c 0.415179,-0.12566 0.796114,0.44132 1.215529,1.72877 0.710434,2.18089 0.32921,3.10024 -1.003981,2.42224 -1.135052,-0.57725 -1.596896,-2.02872 -1.011261,-3.18018 0.28929,-0.56885 0.550733,-0.89516 0.799754,-0.97085 z m 25.553839,-7.74114 c 1.61385,-0.52572 4.11631,-0.0909 4.39462,0.76348 0.3368,1.03378 0.058,1.1202 -2.72265,0.84854 -2.17429,-0.21233 -3.13288,-1.13625 -1.67201,-1.61218 z m -22.388449,9.27003 c 0.31792,-0.0751 0.759609,0.0298 1.405463,0.24877 0.704345,0.23884 1.099739,0.7477 0.971465,1.25212 -0.118875,0.4676 -0.980288,1.28078 -1.914877,1.80643 l -1.699956,0.95579 0.308191,-2.07102 c 0.214222,-1.43857 0.399918,-2.06647 0.929714,-2.19209 z m 22.444969,-6.57915 c 0.40019,-0.14314 1.07319,-0.22459 2.01082,-0.22097 2.47347,0.0103 2.40309,-0.0331 2.32858,1.41303 -0.0693,1.34718 -0.39935,1.39664 -2.94745,0.43484 -1.8337,-0.69212 -2.2722,-1.3113 -1.39195,-1.6269 z m 8.29819,-2.25558 c 0.48942,-0.15939 0.97333,-0.0331 1.07561,0.281 0.10222,0.31393 -0.0562,0.6496 -0.35144,0.74585 -0.2954,0.096 -0.77929,-0.0302 -1.0756,-0.281 -0.2963,-0.25073 -0.138,-0.58646 0.35143,-0.74585 z m 3.17156,0.35539 c 0.53088,-0.19559 1.27087,-0.26862 2.08321,-0.12381 1.51988,0.27102 1.59385,0.3724 0.77261,1.05056 -1.4112,1.1652 -2.08935,1.3002 -3.15159,0.62955 -0.89549,-0.56534 -0.58913,-1.23067 0.29577,-1.5564 z m -11.55915,4.72615 c 0.89794,-0.22084 2.70741,-0.14664 3.71661,0.24933 0.3155,0.12381 0.33022,0.60918 0.0335,1.07923 -0.39721,0.62912 -1.05211,0.68751 -2.48289,0.22184 -1.06899,-0.34795 -1.87874,-0.90177 -1.79845,-1.23182 0.0337,-0.1378 0.23199,-0.24499 0.53132,-0.31852 z m -0.55991,2.06666 c 1.00373,-0.24318 3.02258,0.43758 2.83727,1.19924 -0.23577,0.9691 -1.53873,1.20555 -2.67784,0.48638 -0.64139,-0.40494 -0.88266,-0.90734 -0.6526,-1.35972 0.0839,-0.16515 0.26153,-0.26975 0.49317,-0.3259 z m 16.98167,-4.67984 c 0.90324,-0.34844 1.93036,-0.37007 2.5915,0.0473 1.41654,0.89432 1.10181,1.58505 -0.91022,1.99829 -2.31675,0.47583 -3.89738,-0.0858 -3.06791,-1.08958 0.34746,-0.42048 0.84468,-0.74696 1.38663,-0.95608 z m -18.56409,6.67022 c 0.25501,-0.0703 0.61778,0.0917 0.98739,0.54771 0.31565,0.3893 0.25134,0.96969 -0.14335,1.28975 -0.4741,0.38445 -0.84237,0.20032 -1.08419,-0.54207 -0.238,-0.73063 -0.0876,-1.20506 0.24024,-1.29539 z m 51.71506,-14.57153 c 0.18407,-0.0876 0.37201,-0.0814 0.56386,0.0165 0.41912,0.21313 0.68373,0.52393 0.58781,0.69145 -0.0958,0.16761 -0.75319,0.70878 -1.46058,1.20214 -1.28482,0.89604 -1.28601,0.89481 -0.58816,-0.69259 0.29307,-0.6667 0.5903,-1.07113 0.89707,-1.21713 z m -30.08578,11.28796 c 1.90272,-0.61982 2.34521,-0.55351 2.65513,0.39784 0.40821,1.25315 -0.19045,1.54096 -2.86637,1.37644 -2.53079,-0.15548 -2.44104,-0.91025 0.21124,-1.77428 z m -0.24376,3.05997 c 0.24076,-0.0819 0.52729,-0.15508 0.85882,-0.22177 1.14359,-0.23035 2.29218,-0.23771 2.55339,-0.0165 0.2612,0.22105 0.3848,0.82405 0.27375,1.34008 -0.1703,0.7904 -0.54031,0.8935 -2.34672,0.65487 -2.51452,-0.33238 -3.02679,-1.18976 -1.33916,-1.75633 z m 31.12399,-8.68011 c 0.69427,-0.26288 1.2813,-0.30959 1.37895,0.004 0.0724,0.23685 -0.75095,1.19429 -1.83218,2.12844 -1.61125,1.39208 -2.01267,1.55531 -2.22463,0.90473 -0.14211,-0.43655 0.15137,-1.22139 0.65264,-1.7442 0.52887,-0.55145 1.33097,-1.03071 2.02522,-1.29358 z m -31.31777,11.59064 c 0.39044,-0.11024 1.00413,-0.13677 1.81303,-0.0331 1.65798,0.21233 1.9328,0.4304 1.46778,1.16689 -0.43874,0.69495 -0.98139,0.76586 -2.32693,0.30299 -1.59264,-0.54792 -1.81284,-1.19412 -0.95388,-1.43666 z m -0.39097,3.4976 c 0.20546,-0.0448 0.48832,-0.0253 0.87365,0.0434 1.05073,0.18737 1.23371,0.44494 0.90532,1.27244 -0.72974,1.83874 -2.37622,1.47887 -2.2744,-0.4972 0.0255,-0.49224 0.15281,-0.74432 0.49543,-0.81865 z m 34.59019,-11.01652 c 1.45149,-0.49769 1.52785,0.46604 -0.70042,2.49473 -1.10484,1.00585 -1.70796,1.83119 -1.33998,1.83368 0.36798,0.002 1.314,-0.64939 2.10193,-1.44803 1.67355,-1.6964 1.99573,-1.85345 2.24226,-1.0967 0.10016,0.30756 -0.66644,1.40968 -1.70312,2.44895 -2.28204,2.2878 -2.22034,2.26369 -2.98005,1.14096 -0.33696,-0.49796 -0.92233,-1.26783 -1.30094,-1.71084 -0.51293,-0.60013 -0.27461,-1.12028 0.93574,-2.04111 1.14048,-0.86763 2.08482,-1.39541 2.74458,-1.62164 z m 1.66086,5.17839 c 0.48638,-0.16906 0.47134,0.0572 0.1707,0.81502 -0.54306,1.36833 -2.12898,2.04779 -2.1253,0.91062 0.002,-0.43453 0.58321,-1.07732 1.29307,-1.42872 0.2817,-0.13944 0.49958,-0.24038 0.66161,-0.29708 z m 28.16494,24.88386 c 0.39839,0.91098 -1.67966,5.19372 -2.42156,4.81638 m 0,0 c -0.94693,-0.48155 -0.98911,-1.679 -0.13471,-3.79004 0.84132,-2.07865 0.83005,-2.12675 -1.55354,-6.96076 -1.32018,-2.67738 -2.76846,-5.29519 -3.21805,-5.81672 -0.4168,-0.48352 -0.5503,-0.72902 -0.36777,-0.83346 0.10942,-0.0627 0.33333,-0.0744 0.67821,-0.057 0.61998,0.0319 1.35738,-0.0165 1.63928,-0.1088 0.88272,-0.28754 4.13468,3.38328 5.4748,6.18034 1.09791,2.29147 1.16039,2.88935 0.43811,4.14994 -0.46419,0.8101 -0.70447,1.89935 -0.5349,2.41983 m 8.02184,9.42994 c -228.658652,-23.42935 -114.329328,-11.71469 0,0 z"
       sodipodi:nodetypes="ccccscccssssssccsscccssscccsssssscssssssssssssssssssssssssssssccsssssssssscssssssssssssssssssssssccsssssssscccsccsssssssssssssssssssssssssssssssssccssssssssscsssssssssscssscscssssssssssssssssssssssssssssssssssssssssssssssssssssssssssssssssssssssssssssssssssssssssccccsccssssccc" />
    <g
       id="g1200"
       transform="translate(-217.16314,31.42726)">
      <path
         style="fill:#333333;fill-opacity:1;stroke:none;stroke-width:41.1333;stroke-miterlimit:4;stroke-dasharray:none;stroke-opacity:1"
         d="m 342.51699,157.97681 c -0.34262,0.0742 -0.4726,0.3272 -0.49811,0.81944 -0.1018,1.97606 1.54785,2.33684 2.27759,0.4981 0.32839,-0.8275 0.14294,-1.086 -0.90781,-1.27336 -0.38533,-0.0687 -0.66621,-0.089 -0.87167,-0.0442 z"
         id="path1175" />
      <path
         style="fill:#333333;fill-opacity:1;stroke:none;stroke-width:41.1333;stroke-miterlimit:4;stroke-dasharray:none;stroke-opacity:1"
         d="m 343.6578,154.38567 c -0.30334,0.008 -0.55596,0.0413 -0.75118,0.0965 -0.85896,0.24254 -0.63662,0.88611 0.95604,1.43403 1.34551,0.46287 1.88703,0.39368 2.32578,-0.30126 0.46501,-0.73649 0.18777,-0.95259 -1.47018,-1.16492 -0.40447,-0.0518 -0.75712,-0.0718 -1.06046,-0.0642 z"
         id="path1173" />
      <path
         style="fill:#333333;fill-opacity:1;stroke:none;stroke-width:41.1333;stroke-miterlimit:4;stroke-dasharray:none;stroke-opacity:1"
         d="m 379.04284,152.09202 c -0.0623,-0.008 -0.15548,0.006 -0.27715,0.0481 -0.16207,0.0568 -0.37707,0.15775 -0.65877,0.29725 -0.70986,0.35141 -1.29142,0.99549 -1.29346,1.43002 -0.004,1.13717 1.58188,0.4565 2.12495,-0.91184 0.22547,-0.56838 0.29122,-0.83581 0.10447,-0.86363 z"
         id="path1171" />
      <path
         style="fill:#333333;fill-opacity:1;stroke:none;stroke-width:41.1333;stroke-miterlimit:4;stroke-dasharray:none;stroke-opacity:1"
         d="m 321.71737,151.79477 c -0.32785,0.0903 -0.47902,0.5628 -0.24102,1.29343 0.24182,0.7424 0.61046,0.92676 1.08456,0.54231 0.3947,-0.32006 0.45609,-0.90014 0.14068,-1.28945 -0.36961,-0.45598 -0.72913,-0.61663 -0.98414,-0.54629 z"
         id="path1169" />
      <path
         style="fill:#333333;fill-opacity:1;stroke:none;stroke-width:41.1333;stroke-miterlimit:4;stroke-dasharray:none;stroke-opacity:1"
         d="m 345.56583,151.17213 c -0.46275,0.004 -1.03498,0.0615 -1.60677,0.17667 -0.33154,0.0666 -0.61887,0.13903 -0.85963,0.22093 -1.68763,0.56657 -1.17285,1.42704 1.34165,1.75941 1.80641,0.23864 2.1756,0.13574 2.34589,-0.65476 0.11106,-0.51603 -0.0123,-1.12059 -0.27314,-1.34164 -0.1306,-0.11065 -0.48527,-0.16371 -0.948,-0.16063 z"
         id="path1167" />
      <path
         style="fill:#ffffff;fill-opacity:1;stroke:none;stroke-width:41.1333;stroke-miterlimit:4;stroke-dasharray:none;stroke-opacity:1"
         d="m 298.33488,149.96304 c -0.24903,0.0757 -0.5101,0.39924 -0.79939,0.96809 -0.58563,1.15147 -0.12278,2.60415 1.01227,3.1814 1.33319,0.678 1.71466,-0.24131 1.00423,-2.4222 -0.41942,-1.28745 -0.80194,-1.85295 -1.21711,-1.72729 z"
         id="path1165" />
      <path
         style="fill:#333333;fill-opacity:1;stroke:none;stroke-width:41.1333;stroke-miterlimit:4;stroke-dasharray:none;stroke-opacity:1"
         d="m 324.19178,149.78226 c -0.32752,-0.0415 -0.64484,-0.0409 -0.89576,0.0206 -0.23166,0.0561 -0.40617,0.16021 -0.49008,0.32536 -0.23006,0.45239 0.0103,0.9568 0.65075,1.36174 1.13911,0.71917 2.4435,0.48305 2.67928,-0.48605 0.13903,-0.57124 -0.96164,-1.09657 -1.94419,-1.22115 z"
         id="path1163" />
      <path
         style="fill:#ffffff;fill-opacity:1;stroke:none;stroke-width:41.1333;stroke-miterlimit:4;stroke-dasharray:none;stroke-opacity:1"
         d="m 295.51498,148.75393 c -0.17296,-0.0467 -0.36989,-0.0376 -0.57039,0.0401 -0.11456,0.0444 -0.2309,0.11168 -0.34546,0.20485 -0.65897,0.53434 -1.43806,4.39369 -1.09661,5.42686 0.088,0.26613 0.93749,1.15463 1.89196,1.97232 1.72351,1.47633 3.79307,1.48495 4.14949,0.0206 0.0985,-0.40508 -0.55218,-1.13472 -1.44207,-1.62283 -1.75403,-0.96207 -2.79803,-3.22008 -2.11292,-4.56723 0.35797,-0.7039 0.0448,-1.3343 -0.474,-1.47422 z"
         id="path1161" />
      <path
         style="fill:#333333;fill-opacity:1;stroke:none;stroke-width:41.1333;stroke-miterlimit:4;stroke-dasharray:none;stroke-opacity:1"
         d="m 345.26858,148.11926 c -0.38719,-0.058 -0.97276,0.0798 -1.92411,0.38964 -2.65228,0.86402 -2.74368,1.61999 -0.21289,1.77548 2.67593,0.16453 3.27629,-0.12464 2.86808,-1.37781 -0.15487,-0.47568 -0.34387,-0.72929 -0.73108,-0.78731 z"
         id="path1159" />
      <path
         style="fill:#333333;fill-opacity:1;stroke:none;stroke-width:41.1333;stroke-miterlimit:4;stroke-dasharray:none;stroke-opacity:1"
         d="m 324.67382,147.6292 c -0.31166,0.0185 -0.59096,0.0533 -0.81544,0.10839 -0.29933,0.0734 -0.4965,0.17954 -0.53023,0.31734 -0.0802,0.33005 0.72658,0.88525 1.79557,1.2332 1.43078,0.46567 2.08525,0.40818 2.48245,-0.22093 0.2967,-0.47005 0.28325,-0.95674 -0.0321,-1.08055 -0.75691,-0.29696 -1.96516,-0.41125 -2.9002,-0.35751 z"
         id="path1157" />
      <path
         style="fill:#333333;fill-opacity:1;stroke:none;stroke-width:41.1333;stroke-miterlimit:4;stroke-dasharray:none;stroke-opacity:1"
         d="m 377.58471,146.84187 c -0.13656,0.0164 -0.29657,0.0584 -0.47801,0.12052 -0.65976,0.22623 -1.60309,0.75521 -2.74357,1.62283 -1.21035,0.92083 -1.44888,1.44047 -0.93593,2.0406 0.37862,0.44301 0.96452,1.21325 1.30148,1.71121 0.75971,1.12273 0.6945,1.14698 2.97653,-1.14081 1.03668,-1.03928 1.80334,-2.14276 1.70318,-2.45031 -0.24653,-0.75675 -0.5679,-0.59979 -2.24145,1.09661 -0.78793,0.79865 -1.73286,1.45217 -2.10084,1.45011 -0.36798,-0.002 0.2368,-0.82988 1.34164,-1.83573 1.94974,-1.77511 2.1335,-2.73623 1.17697,-2.61503 z"
         id="path1155" />
      <path
         style="fill:#333333;fill-opacity:1;stroke:none;stroke-width:41.1333;stroke-miterlimit:4;stroke-dasharray:none;stroke-opacity:1"
         d="m 341.66541,144.86153 c -0.45233,-0.003 -0.93422,0.0869 -1.38585,0.26111 -0.54195,0.20912 -1.03839,0.53554 -1.38584,0.95602 -0.82947,1.00382 0.75219,1.56843 3.06893,1.0926 2.01204,-0.41324 2.32436,-1.10611 0.90782,-2.00042 -0.33057,-0.20869 -0.75274,-0.30609 -1.20506,-0.30931 z"
         id="path1153" />
      <path
         style="fill:#333333;fill-opacity:1;stroke:none;stroke-width:41.1333;stroke-miterlimit:4;stroke-dasharray:none;stroke-opacity:1"
         d="m 325.95924,144.68882 c -0.93763,-0.004 -1.6123,0.0778 -2.01249,0.22093 -0.88025,0.31559 -0.43981,0.93473 1.39389,1.62685 2.5481,0.9618 2.87509,0.91334 2.9444,-0.43383 0.0744,-1.44614 0.14767,-1.40367 -2.3258,-1.41395 z"
         id="path1151" />
      <path
         style="fill:#333333;fill-opacity:1;stroke:none;stroke-width:41.1333;stroke-miterlimit:4;stroke-dasharray:none;stroke-opacity:1"
         d="m 336.35101,142.82095 c -0.35291,0.0246 -0.67052,0.091 -0.93595,0.1888 -0.8849,0.32573 -1.18873,0.99323 -0.29322,1.55856 1.06223,0.67066 1.73809,0.53455 3.14925,-0.63065 0.82126,-0.67817 0.74862,-0.78143 -0.77125,-1.05244 -0.40617,-0.0724 -0.79593,-0.0889 -1.14883,-0.0643 z"
         id="path1149" />
      <path
         style="fill:#333333;fill-opacity:1;stroke:none;stroke-width:41.1333;stroke-miterlimit:4;stroke-dasharray:none;stroke-opacity:1"
         d="m 375.13841,142.67634 c -0.24575,0.005 -0.5647,0.0815 -0.91184,0.2129 -0.69425,0.26286 -1.49968,0.742 -2.02855,1.29345 -0.50127,0.5228 -0.79287,1.3068 -0.65075,1.74334 0.21196,0.65059 0.61412,0.48828 2.22537,-0.9038 1.08123,-0.93416 1.90412,-1.89213 1.83173,-2.12897 -0.0487,-0.15684 -0.22021,-0.22224 -0.46596,-0.21692 z"
         id="path1147" />
      <path
         style="fill:#333333;fill-opacity:1;stroke:none;stroke-width:41.1333;stroke-miterlimit:4;stroke-dasharray:none;stroke-opacity:1"
         d="m 332.92859,142.62014 c -0.19497,-0.0509 -0.43815,-0.0435 -0.68287,0.0362 -0.48942,0.15939 -0.6498,0.49642 -0.3535,0.74715 0.2963,0.25077 0.78114,0.37321 1.07654,0.27717 0.2953,-0.0963 0.45572,-0.42921 0.3535,-0.74313 -0.0512,-0.15707 -0.19867,-0.26644 -0.39367,-0.31734 z"
         id="path1145" />
      <path
         style="fill:#333333;fill-opacity:1;stroke:none;stroke-width:41.1333;stroke-miterlimit:4;stroke-dasharray:none;stroke-opacity:1"
         d="m 325.22012,141.99752 c -0.46592,0.0197 -0.92612,0.0895 -1.3296,0.22093 -1.46087,0.47593 -0.50324,1.40248 1.67104,1.6148 2.78065,0.27167 3.06028,0.18621 2.72348,-0.84757 -0.20873,-0.64077 -1.66722,-1.0476 -3.06492,-0.98816 z"
         id="path1143" />
      <path
         style="fill:#333333;fill-opacity:1;stroke:none;stroke-width:41.1333;stroke-miterlimit:4;stroke-dasharray:none;stroke-opacity:1"
         d="m 324.19178,137.32584 c -0.24708,0.0171 -0.50614,0.056 -0.7632,0.11248 -0.41389,0.0915 -0.73489,0.16957 -0.97612,0.2611 -0.72398,0.27321 -0.73453,0.63467 -0.42178,1.59472 0.32228,0.98933 1.05308,1.55057 2.31776,1.78351 2.44887,0.45107 3.48467,0.0959 2.88013,-0.99218 -0.2714,-0.48854 -1.50653,-0.94583 -2.74355,-1.01226 l -2.24947,-0.1205 1.9964,-0.32939 c 1.42056,-0.23617 1.86038,-0.51353 1.53045,-0.96406 -0.19107,-0.26104 -0.82939,-0.38452 -1.57062,-0.33341 z"
         id="path1141" />
      <path
         style="fill:#333333;fill-opacity:1;stroke:none;stroke-width:41.1333;stroke-miterlimit:4;stroke-dasharray:none;stroke-opacity:1"
         d="m 373.70837,137.16114 c -0.094,-0.003 -0.1851,0.0165 -0.27715,0.0603 -0.30678,0.14601 -0.60672,0.55042 -0.8998,1.21713 -0.69784,1.5874 -0.69432,1.59098 0.59049,0.69493 0.70739,-0.49335 1.36633,-1.03344 1.46217,-1.20106 0.0958,-0.16752 -0.17132,-0.4818 -0.59049,-0.69493 -0.0958,-0.0489 -0.19127,-0.0735 -0.28522,-0.0763 z"
         id="path1139" />
      <path
         style="fill:#ffffff;fill-opacity:1;stroke:none;stroke-width:41.1333;stroke-miterlimit:4;stroke-dasharray:none;stroke-opacity:1"
         d="m 306.85074,136.09264 c -0.49878,-0.0326 -1.01204,0.01 -1.41396,0.1406 -1.74047,0.56698 -4.74779,3.9364 -4.04504,4.53108 0.8284,0.70104 2.63666,-0.21538 2.90826,-1.47421 0.14232,-0.65959 0.36648,-0.87448 0.50613,-0.48203 0.13738,0.39032 0.6644,0.57406 1.16892,0.40973 0.58737,-0.19133 0.69604,-0.57361 0.30126,-1.06047 -0.50766,-0.626 -0.37838,-0.71809 0.74314,-0.51818 1.96849,0.35107 2.71954,-0.43655 1.16892,-1.22516 -0.3549,-0.18058 -0.83887,-0.28871 -1.33763,-0.32136 z"
         id="path1137" />
      <path
         style="fill:#333333;fill-opacity:1;stroke:none;stroke-width:41.1333;stroke-miterlimit:4;stroke-dasharray:none;stroke-opacity:1"
         d="m 323.06706,134.98397 c -0.14726,0.0107 -0.30287,0.0446 -0.46598,0.10043 -0.39157,0.13374 -0.82841,0.39793 -1.31353,0.79133 -1.37873,1.11811 -0.5341,1.68491 1.51839,1.01628 1.52539,-0.49693 1.84183,-0.81669 1.37379,-1.39387 -0.30222,-0.37262 -0.67086,-0.54633 -1.11267,-0.51416 z"
         id="path1135" />
      <path
         style="fill:#333333;fill-opacity:1;stroke:none;stroke-width:41.1333;stroke-miterlimit:4;stroke-dasharray:none;stroke-opacity:1"
         d="m 321.5848,133.68651 c -0.40819,0.0185 -0.89883,0.1077 -1.36976,0.2611 -0.99619,0.32454 -1.48637,0.74701 -1.17294,1.01226 0.29631,0.25071 1.30765,0.20639 2.24948,-0.10043 0.99631,-0.32454 1.49034,-0.75107 1.17695,-1.01628 -0.14808,-0.12533 -0.47555,-0.1752 -0.88373,-0.15665 z"
         id="path1133" />
      <path
         style="fill:#333333;fill-opacity:1;stroke:none;stroke-width:41.1333;stroke-miterlimit:4;stroke-dasharray:none;stroke-opacity:1"
         d="m 318.73278,131.64993 c -0.24966,-0.0354 -0.47972,-0.0257 -0.66278,0.0321 -0.12175,0.0391 -0.22455,0.0995 -0.29324,0.18076 -0.90524,1.06971 -0.1744,1.67442 1.40191,1.16089 1.42753,-0.46503 1.45377,-0.55488 0.32536,-1.12875 -0.25258,-0.12854 -0.52159,-0.20966 -0.77125,-0.24504 z"
         id="path1129" />
    </g>
  </g>
</svg>
